<svg width="170" height="170" viewBox="0 0 170 170" fill="none" xmlns="http://www.w3.org/2000/svg">
<rect width="170" height="170" fill="white"/>
<path d="M104.733 107.945C98.1504 104.961 77.9836 105.23 63.9957 105.772C50.0075 106.315 49.5875 116.091 52.4744 122.609C55.3611 129.125 66.8764 137 77.1613 137C87.4462 137 104.184 128.945 105.413 124.602C106.645 120.258 115.106 115.439 112.139 112.832C109.669 110.658 111.317 110.931 104.733 107.945ZM113.328 95.0385C111.888 98.3641 108.196 103.487 105.413 106.121C108.684 106.417 112.585 108.991 113.328 110.713C117.167 106.279 122.864 99.621 123.165 97.5732C123.562 94.8637 114.767 91.7126 113.328 95.0385ZM125.382 78.8121C126.742 86.4215 114.173 90.0171 115.305 91.8086C119.581 90.9608 123.678 92.9694 125.193 95.6405C126.321 85.9435 134.538 85.0198 136.573 79.5002C137.165 77.2722 125.569 76.5154 125.382 78.8121ZM138.163 68.035C135.451 66.9868 133.78 70.0403 131.83 72.5135C130.339 74.4063 128.831 73.6662 127.023 76.3517C130.294 74.7687 136.128 74.8732 137.92 77.5324C137.527 73.9601 140.873 69.0824 138.163 68.035ZM100.779 103.93C100.387 97.1173 102.076 91.5274 105.342 84.1878C107.983 78.2499 91.1737 76.8624 92.0412 83.308C93.0054 90.4905 92.8857 93.8426 89.7618 103.122C92.9935 102.681 99.782 103.564 100.779 103.93ZM92.0907 77.2458C94.1789 75.8727 102.923 75.828 105.951 77.9236C105.951 74.0469 103.298 71.5626 103.298 68.3128C103.298 65.0629 105.951 64.0969 105.951 60.9429C105.951 56.446 94.5868 56.913 94.5868 60.7481C94.5868 64.224 95.7265 64.8187 95.5341 68.4399C95.3393 72.0603 91.903 74.7462 92.0907 77.2458ZM106.461 57.2107C107.096 54.8165 103.466 54.9362 106.281 48.711C108.39 44.0416 96.67 43.5188 97.8447 48.1722C99.6595 55.3561 95.938 54.5172 96.1207 56.7924C98.8392 55.535 105.009 56.2527 106.461 57.2107ZM106.278 44.282C106.733 42.5456 104.01 42.2471 106.006 38.4152C107.888 34.8044 99.1741 34.6775 100.291 38.0559C101.832 42.7253 99.3836 42.1864 99.294 44.0417C100.291 43.0837 105.551 43.8022 106.278 44.282ZM73.9932 83.3815C75.6495 90.508 76.3693 92.8989 74.1626 102.29C77.3384 101.709 84.1981 102.301 85.2376 102.626C84.1777 95.8425 84.8057 91.1556 87.3524 83.6906C89.4031 77.6555 72.4941 76.9848 73.9932 83.3815ZM73.5685 77.4708C75.6555 76.0977 84.5853 75.7497 87.6125 77.8436C87.6125 73.9686 84.7718 71.7868 84.7718 68.5361C84.7718 65.2846 87.425 64.3202 87.425 61.1662C87.425 56.6685 76.0619 57.1363 76.0619 60.9714C76.0619 64.4473 77.2016 65.042 77.0093 68.6632C76.8169 72.2852 73.3808 74.9712 73.5685 77.4708ZM87.4248 57.2113C88.06 54.8171 84.4316 54.9369 87.2445 48.7116C89.3533 44.0422 77.6336 43.5195 78.8084 48.1728C80.6232 55.3567 76.9017 54.5178 77.0843 56.793C79.2887 55.8645 85.9728 56.2533 87.4248 57.2113ZM86.5622 44.0584C87.0171 42.3221 84.4304 40.6352 86.4267 36.8033C88.308 33.1934 79.5945 33.0657 80.7114 36.4449C82.2528 41.1143 79.6673 41.9636 79.5766 43.8189C80.5747 42.8609 85.8362 43.5786 86.5622 44.0584ZM58.9004 85.2446C61.7871 98.3647 60.9354 101.62 61.1048 103.748C61.1048 103.748 66.208 102.626 69.7757 103.412C69.7757 98.9252 68.1315 97.893 70.4556 85.0203C71.4526 79.5103 57.6011 79.3402 58.9004 85.2446ZM66.5477 64.6116C67.9717 60.8588 56.9947 60.6561 58.7285 65.398C60.0835 69.098 60.0896 74.4811 58.3885 79.4163C58.7285 78.2947 66.7123 77.7359 69.0931 78.9677C66.7121 75.3778 64.6773 69.5459 66.5477 64.6116ZM58.3884 61.1349C60.4246 59.7882 64.8405 59.7882 66.7122 61.0232C67.0522 58.5581 63.1467 58.4463 66.3771 51.3788C68.1967 47.3953 56.6017 48.0683 58.2178 51.2671C61.4445 57.6607 57.7085 59.0028 58.3884 61.1349ZM65.8676 47.7944C65.3582 46.0022 63.656 45.6621 65.1864 41.8502C66.5754 38.3927 57.8451 38.2625 59.2389 42.0745C60.5951 45.7746 59.4083 45.999 58.5589 47.7944C59.7495 46.7877 65.0171 47.0089 65.8676 47.7944ZM57.3685 104.535C54.1369 99.5999 52.9804 92.7575 53.1161 90.1798C53.4561 83.7854 39.8597 85.9177 42.2409 91.0771C44.6218 96.2366 50.0601 99.5999 50.0601 106.776C51.08 105.428 54.6523 103.977 57.3685 104.535ZM51.7536 84.796C48.522 80.0851 49.2069 73.9197 50.2292 70.5565C51.2503 67.1932 40.8784 65.9582 41.7302 71.0051C42.1947 73.7665 42.5795 81.5443 41.049 84.6826C42.4113 82.6629 49.2096 83.6767 51.7536 84.796ZM41.9008 58.1097C42.9957 59.9993 42.2408 62.7079 42.2408 65.6218C43.7724 63.717 47.3378 64.6127 48.5284 65.2857C48.8684 63.3778 47.1673 61.4739 48.5284 57.661C49.8895 53.8475 39.6891 54.2969 41.9008 58.1097ZM41.2209 53.6232C41.9008 52.1671 46.1485 52.8368 47.5085 53.5114C45.9768 51.0463 46.1474 51.2675 46.9992 48.4646C47.8485 45.6617 42.4116 45.4375 41.3917 46.8935C40.3693 48.348 41.7314 50.4802 41.2209 53.6232Z" fill="#1E3163"/>
</svg>
