<svg width="79" height="140" viewBox="0 0 79 140" fill="none" xmlns="http://www.w3.org/2000/svg">
<path d="M32.8738 23.4194C39.3237 23.9248 44.9803 19.1059 45.4936 12.6579C45.9936 6.19702 41.1633 0.547924 34.718 0.0369252C28.2667 -0.47258 22.6162 4.35043 22.1028 10.8044C21.5974 17.2667 26.4089 22.9061 32.8738 23.4194Z" fill="#1E3163"/>
<path d="M36.09 46.9286C39.7481 47.6131 42.498 50.8456 42.498 54.7125C42.498 59.0901 38.9474 62.6394 34.5698 62.6394H8.88215C6.10444 62.6394 3.85185 60.3894 3.85185 57.6063C3.85185 56.9327 3.98492 56.2861 4.22281 55.7009L7.00052 49.2163L37.9346 27.0579L23.1926 27.0583C17.5339 26.9029 13.555 28.8685 11.2728 33.3273C9.72433 36.33 1.51615 54.6714 1.51615 54.6714C1.15339 55.576 0.953332 56.5727 0.953332 57.6072C0.953332 61.9848 4.50256 65.5341 8.88163 65.5341H18.9154L15.9573 84.9987L0.382366 130C-0.927798 133.993 1.23914 138.249 5.19847 139.569C9.16198 140.892 13.4598 138.721 14.7687 134.748L32.677 83.9874C36.1688 89.6617 43.1196 99.8331 44.3013 101.752C44.5729 104.944 47.0735 133.097 47.0735 133.097C47.4545 137.281 51.1322 140.331 55.2916 139.971C59.4565 139.616 62.5381 135.917 62.1658 131.753L59.2219 98.6233C59.1225 97.443 58.7402 96.3146 58.1213 95.3153L45.2483 74.4483L47.2964 48.2637C47.2964 48.2637 50.3457 58.6251 50.574 59.3771C51.228 61.5135 52.7037 63.048 54.2153 64.273C55.1017 64.9771 70.1263 75.2069 70.1263 75.2069C70.9662 75.592 71.6465 75.9333 72.5425 75.9935C75.4487 76.2341 78.0012 74.0584 78.235 71.1441C78.3791 69.2765 77.5451 67.5753 76.1674 66.5116C76.1674 66.5116 61.1944 56.2314 60.5842 55.7834C60.0889 55.4097 59.6965 54.7543 59.5971 54.4111L53.6708 33.067C52.7074 29.8372 49.4539 27.0596 45.3378 27.0596H43.5655L36.09 46.9286Z" fill="#1E3163"/>
<path d="M34.5714 59.7423C37.3491 59.7423 39.6017 57.4924 39.6017 54.7092C39.6017 52.1193 37.6294 50.0065 35.1091 49.7349L31.4355 59.7727L34.5714 59.7423Z" fill="#1E3163"/>
</svg>
