<svg width="170" height="170" viewBox="0 0 170 170" fill="none" xmlns="http://www.w3.org/2000/svg">
<path d="M79.155 41.2411C85.4638 41.6779 90.9967 37.513 91.4988 31.94C91.9878 26.356 87.2632 21.4736 80.9588 21.0319C74.6486 20.5916 69.1216 24.76 68.6195 30.3381C68.1252 35.9233 72.8314 40.7974 79.155 41.2411Z" fill="#1E3163"/>
<path d="M82.3009 61.5597C85.8789 62.1513 88.5687 64.9451 88.5687 68.2872C88.5687 72.0708 85.0958 75.1383 80.8138 75.1383H55.6879C52.971 75.1383 50.7676 73.1937 50.7676 70.7883C50.7676 70.2061 50.8978 69.6472 51.1305 69.1415L53.8474 63.537L84.1051 44.3857L69.6855 44.3861C64.1504 44.2518 60.2585 45.9507 58.0263 49.8043C56.5117 52.3995 48.483 68.2517 48.483 68.2517C48.1282 69.0336 47.9325 69.895 47.9325 70.7891C47.9325 74.5726 51.4041 77.6402 55.6874 77.6402H65.5018L62.6084 94.4632L47.374 133.358C46.0925 136.808 48.212 140.487 52.0848 141.628C55.9616 142.771 60.1655 140.894 61.4458 137.461L78.9625 93.5891C82.3779 98.4934 89.1767 107.284 90.3326 108.943C90.5982 111.702 93.0442 136.034 93.0442 136.034C93.4168 139.65 97.0141 142.286 101.083 141.975C105.156 141.668 108.171 138.471 107.806 134.872L104.927 106.239C104.83 105.219 104.456 104.243 103.85 103.38L91.2589 85.3446L93.2622 62.7136C93.2622 62.7136 96.2448 71.6688 96.4681 72.3188C97.1078 74.1653 98.5512 75.4915 100.03 76.5503C100.897 77.1588 115.593 86.0003 115.593 86.0003C116.414 86.3331 117.08 86.6281 117.956 86.6801C120.799 86.8881 123.296 85.0077 123.524 82.4889C123.665 80.8747 122.849 79.4044 121.502 78.4851C121.502 78.4851 106.856 69.6 106.259 69.2128C105.775 68.8898 105.391 68.3234 105.294 68.0268L99.4972 49.5794C98.5549 46.7879 95.3725 44.3873 91.3464 44.3873H89.6129L82.3009 61.5597Z" fill="#1E3163"/>
<path d="M80.8155 72.6344C83.5324 72.6344 85.7358 70.6898 85.7358 68.2844C85.7358 66.046 83.8065 64.2199 81.3414 63.9851L77.7481 72.6607L80.8155 72.6344Z" fill="#1E3163"/>
</svg>
