<svg width="158" height="158" viewBox="0 0 158 158" fill="none" xmlns="http://www.w3.org/2000/svg">
<path d="M0.103516 100.601H130.02V110.829H0.103516V100.601Z" fill="#1E3163"/>
<path d="M96.6466 128.214C96.6466 121.399 66.6358 122.083 66.6358 128.306V151.374C66.337 154.553 68.6442 157.667 71.8326 157.667C74.2072 157.667 152.212 157.672 152.212 157.672C155.407 157.672 157.993 155.09 157.993 151.897C157.993 151.897 158 78.9773 158 78.8601C158 32.969 118.61 -3.9174 71.8501 0.334112C68.6725 0.627795 66.3262 3.43091 66.6137 6.61606V31.4708H96.6482L96.6487 13.8656C125.357 21.5651 146.433 47.7737 146.444 78.8379C146.341 109.881 125.37 136.21 96.6487 143.867V128.213L96.6466 128.214Z" fill="#1E3163"/>
<path d="M106.766 79.0342C106.766 71.8815 112.559 66.0923 119.706 66.0923C126.841 66.0923 132.657 71.8815 132.657 79.0342C132.657 86.1633 126.84 91.9777 119.706 91.9777C112.559 91.9777 106.766 86.1617 106.766 79.0342Z" fill="#1E3163"/>
<path d="M90.218 65.637H46.8575L0 72.8082V91.9591L34.0832 91.9653C33.0515 90.2953 32.4256 88.3455 32.4256 86.2456C32.4256 80.2084 37.3409 75.2978 43.375 75.2978H67.1224L86.3668 71.2768L87.4396 76.3881L67.662 80.5181L43.3761 80.5186C40.2161 80.5186 37.6516 83.0799 37.6516 86.2461C37.6516 89.384 40.1764 91.9263 43.3014 91.9658L90.3143 91.9705C97.5884 91.9134 103.422 86.0584 103.422 78.8203C103.422 71.5457 97.5351 65.637 90.218 65.637Z" fill="#1E3163"/>
</svg>
