<svg width="170" height="170" viewBox="0 0 170 170" fill="none" xmlns="http://www.w3.org/2000/svg">
<rect width="170" height="170" fill="white"/>
<path d="M21.0812 98.1455H123.042V106.172H21.0812V98.1455Z" fill="#1E3163"/>
<path d="M104.791 81.2193C104.791 75.6058 109.338 71.0624 114.947 71.0624C120.546 71.0624 125.111 75.6058 125.111 81.2193C125.111 86.8143 120.545 91.3776 114.947 91.3776C109.338 91.3776 104.791 86.8131 104.791 81.2193Z" fill="#1E3163"/>
<path d="M91.8042 70.7051H57.7744L21 76.3331V91.363L47.7489 91.3678C46.9392 90.0572 46.448 88.527 46.448 86.8789C46.448 82.1409 50.3056 78.2869 55.0412 78.2869H73.6785L88.7817 75.1312L89.6237 79.1427L74.102 82.3839L55.0421 82.3843C52.5621 82.3843 50.5494 84.3945 50.5494 86.8793C50.5494 89.342 52.531 91.3373 54.9835 91.3683L91.8798 91.3719C97.5886 91.3271 102.167 86.732 102.167 81.0514C102.167 75.3423 97.5468 70.7051 91.8042 70.7051Z" fill="#1E3163"/>
<path d="M94.6301 114.678C94.7577 114.775 94.8207 114.842 94.8494 114.88V118.568L94.8511 118.567V120.799C94.8511 122.777 96.7376 124.216 98.6474 123.684C109.706 120.607 119.036 116.285 125.611 109.49C132.246 102.632 135.89 93.4507 135.931 81.0719V81.0646C135.927 68.6501 132.256 60.8123 125.441 55.4081C118.834 50.1689 109.456 47.4012 98.6361 44.4832C96.7442 43.9729 94.8511 45.3893 94.851 47.3777L94.8507 55.891H75.2792V38.3847V38.2946L75.2711 38.2049C75.1451 36.8084 76.1723 35.5761 77.5718 35.4462C95.6441 33.8033 112.06 36.6899 123.884 44.1997C135.605 51.6445 143 63.7397 143 81.0827L142.998 107.277L142.996 125.241L142.995 131.158L142.995 132.816L142.995 133.253L142.995 133.365V133.393V133.4V133.402C142.995 133.403 142.995 133.403 144.995 133.403L142.995 133.403V133.403C142.995 134.802 141.863 135.935 140.458 135.935V136.47C140.458 135.935 140.458 135.935 140.458 135.935H140.456H140.447H140.414L140.283 135.935L139.77 135.935L137.824 135.935L130.864 135.934L109.616 135.933L77.3751 135.931C76.3019 135.931 75.1387 134.766 75.2878 133.18L75.2966 133.086V132.992V115.039C75.3329 115.002 75.3935 114.948 75.4903 114.877C75.8705 114.599 76.5436 114.278 77.5443 113.982C79.5208 113.397 82.2694 113.052 85.0988 113.015C87.9317 112.978 90.6667 113.254 92.6242 113.809C93.6143 114.089 94.2669 114.403 94.6301 114.678ZM75.2482 115.098C75.2476 115.098 75.2503 115.093 75.2581 115.083C75.2528 115.093 75.2489 115.098 75.2482 115.098ZM44.448 86.8789C44.448 87.7404 44.5559 88.573 44.754 89.3673L23 89.3634V78.0503L57.9265 72.7051H91.8042C96.4422 72.7051 100.167 76.4468 100.167 81.0513V81.0514C100.167 85.6227 96.4868 89.3317 91.8716 89.3719L54.998 89.3683C53.6413 89.3454 52.5494 88.2399 52.5494 86.8793C52.5494 85.4991 53.6666 84.3843 55.0421 84.3843L74.102 84.3839L74.3086 84.3839L74.5108 84.3417L90.0325 81.1004L91.9923 80.6912L91.581 78.7318L90.739 74.7204L90.3286 72.7648L88.3727 73.1735L73.4717 76.2869H55.0412C49.2018 76.2869 44.448 81.0356 44.448 86.8789ZM23.0812 100.145H121.042V104.172H23.0812V100.145ZM106.791 81.2193C106.791 76.7107 110.442 73.0624 114.947 73.0624C119.446 73.0624 123.111 76.714 123.111 81.2193C123.111 85.7087 119.442 89.3776 114.947 89.3776C110.445 89.3776 106.791 85.7111 106.791 81.2193Z" stroke="#1E3163" stroke-width="4"/>
</svg>
