<svg width="170" height="170" viewBox="0 0 170 170" fill="none" xmlns="http://www.w3.org/2000/svg">
<path fill-rule="evenodd" clip-rule="evenodd" d="M136.088 109.318L134.327 112.859C129.035 110.885 123.004 112.968 119.839 118.348C118.872 119.98 118.282 121.748 118.009 123.549H118.004L113.52 123.473C112.955 119.828 111.09 116.444 108.035 114.279C104.815 112 101.016 111.608 97.6136 112.751L95.7883 109.111C98.2732 106.609 99.8555 103.051 99.8555 99.0636C99.8555 94.9238 98.1492 91.2572 95.4956 88.7494L97.6185 84.6966C98.8635 85.159 100.178 85.4636 101.562 85.4636C107.578 85.4636 112.598 80.7907 113.773 74.5782C115.103 74.5727 116.511 74.5619 117.87 74.5564C119.036 80.7798 124.06 85.4636 130.087 85.4636C131.57 85.4636 132.968 85.1318 134.288 84.6095L136.356 88.5644C133.588 91.0723 131.793 94.8204 131.793 99.0636C131.793 103.171 133.479 106.81 136.088 109.318ZM145.711 106.435C146.167 108.268 145.567 109.77 145.289 110.335L140.369 120.057C140.131 120.541 139.818 120.987 139.436 121.373C138.439 122.374 137.308 122.635 136.867 122.7C136.267 122.793 135.711 122.739 135.29 122.646L131.401 121.52C131.178 121.498 131.074 121.542 131.009 121.574L130.146 122.14L126.302 124.784L126.094 125.154L125.375 128.538C125.33 128.995 125.032 130.322 123.961 131.432C122.716 132.721 121.243 132.857 120.668 132.857L110.48 132.661C109.979 132.656 109.478 132.558 108.992 132.373C107.762 131.905 107.038 131.007 106.715 130.512C106.413 130.061 106.17 129.533 106.016 128.951L105.093 124.659C105.014 124.458 104.935 124.371 104.87 124.316L102.276 122.385L101.086 121.71L101.066 121.716L100.664 121.705L97.6384 122.722C97.4747 122.826 95.8825 123.25 94.6376 122.836C92.976 122.298 92.1228 120.938 91.8352 120.378L86.895 110.678C86.6569 110.221 86.4684 109.666 86.3742 109.106C86.1361 107.73 86.4684 106.598 86.6867 106.043C86.9099 105.494 87.2075 105.01 87.5695 104.58L90.5009 101.544C90.62 101.376 90.6448 101.24 90.6596 101.153L90.6844 100.685L90.4563 96.126L90.2628 95.7452L87.9217 93.4115C87.1975 92.8239 86.5676 91.7903 86.3047 90.6371C85.8732 88.7711 86.5131 87.286 86.8057 86.7311L91.8947 77.1295C92.1526 76.6454 92.475 76.2047 92.8619 75.8348C93.8241 74.8991 94.8856 74.638 95.4361 74.5727C95.8924 74.502 96.5174 74.5292 97.0481 74.6652L100.892 75.8783C101.13 75.8892 101.219 75.8566 101.279 75.8239L104.076 74.2844L105.192 73.4575L105.401 73.0822L106.065 69.6822C106.17 68.6975 106.661 67.5823 107.439 66.7555C108.694 65.4118 110.187 65.2703 110.772 65.2703H120.911C121.417 65.2703 121.918 65.3519 122.394 65.526C123.619 65.9721 124.358 66.8479 124.69 67.3321C125.018 67.8054 125.261 68.3331 125.429 68.8988L126.411 73.1638C126.486 73.3651 126.58 73.4575 126.644 73.5065L128.341 74.7251L130.92 75.9654L133.931 74.7795C134.278 74.5836 135.736 74.2191 136.936 74.5782C138.097 74.9155 139.144 75.7695 139.788 76.9283L144.982 86.4918C145.244 86.9705 145.438 87.4927 145.542 88.0422C145.825 89.4294 145.512 90.5718 145.304 91.1267C145.096 91.6815 144.808 92.1875 144.446 92.6281L141.614 95.7289C141.505 95.9084 141.48 96.0335 141.47 96.1206L141.346 99.5532L141.465 101.033L141.658 101.414L144.044 103.693C144.401 103.965 145.324 104.879 145.711 106.435ZM86.9173 35.5581C94.5309 43.4353 93.6679 54.9572 93.524 56.562C92.7552 65.1898 88.2416 70.7277 86.1386 73.2301C83.2767 76.6465 78.3861 82.4727 71.204 82.5162H71.1296C63.8831 82.5162 58.9032 76.5975 56.0711 73.2301C53.9879 70.7549 49.4544 65.2116 48.6807 56.562C48.5418 54.9572 47.6837 43.4353 55.2874 35.5581C59.5083 31.1844 65.3066 29.0029 71.1048 29.0029C76.9031 29.0029 82.7013 31.1844 86.9173 35.5581ZM85.1317 55.6589C85.2111 54.794 85.7567 47.0692 81.129 42.282C78.6539 39.7143 75.0034 38.2455 71.1048 38.2455C67.2063 38.2455 63.5508 39.7143 61.0757 42.282C56.458 47.0692 56.9986 54.794 57.0779 55.6589C57.5839 61.3981 60.7483 65.1572 62.2661 66.9578C65.0635 70.2817 67.8461 73.2628 71.1296 73.2628C74.6711 73.241 77.7116 69.618 79.9336 66.9687C81.4564 65.1572 84.6208 61.3818 85.1317 55.6589ZM81.3294 123.608C83.6457 123.608 85.5454 125.697 85.5454 128.232C85.5454 130.767 83.6457 132.851 81.3343 132.856C63.0369 132.856 44.7345 132.851 26.4321 132.851C26.2585 132.851 24.5175 132.807 23.5553 131.252C23.0047 130.365 22.9898 129.445 22.9998 129.07C23.471 124.419 25.202 112.875 33.3314 101.832C40.945 91.496 52.1508 84.0461 56.8281 82.2564C57.1307 82.1421 57.4283 82.0823 57.7308 82.0823C58.2318 82.0823 59.7278 83.2455 60.1692 83.5664C62.5252 85.2909 66.2571 87.1034 72.6852 87.2231C72.8886 87.2285 73.1019 87.2285 73.1019 87.2285C74.1137 87.2285 74.9767 87.1524 75.6662 87.0599C77.9627 86.7444 80.0905 88.5559 80.3782 91.0746C80.6609 93.528 79.0836 95.7802 76.8715 96.1828C75.6513 96.3351 74.4212 96.4765 73.1019 96.4765L72.5315 96.4711C66.1231 96.3514 60.9151 94.257 57.1604 92.0266C52.5625 94.17 44.8039 100.973 39.8935 107.642C35.8263 113.164 33.6638 118.935 32.513 123.608H81.3294ZM116.021 91.6353C112.489 91.6353 109.627 94.7742 109.627 98.6475C109.627 102.515 112.489 105.654 116.021 105.654C119.547 105.654 122.409 102.515 122.409 98.6475C122.409 94.7742 119.547 91.6353 116.021 91.6353Z" fill="#1E3163"/>
</svg>
