<svg width="170" height="170" viewBox="0 0 170 170" fill="none" xmlns="http://www.w3.org/2000/svg">
<path d="M87.9559 51.3002C88.5789 51.3002 89.188 51.1287 89.706 50.8072C90.2241 50.4858 90.6279 50.029 90.8663 49.4945C91.1047 48.9601 91.1671 48.372 91.0456 47.8046C90.924 47.2372 90.624 46.716 90.1834 46.3069C89.7429 45.8978 89.1815 45.6193 88.5705 45.5064C87.9594 45.3935 87.326 45.4515 86.7503 45.6728C86.1747 45.8942 85.6827 46.2691 85.3366 46.7502C84.9904 47.2312 84.8057 47.7967 84.8057 48.3752C84.8066 49.1507 85.1388 49.8942 85.7293 50.4426C86.3199 50.9909 87.1207 51.2994 87.9559 51.3002Z" fill="#1E3163"/>
<path d="M102.651 51.3002C103.274 51.3002 103.883 51.1287 104.401 50.8072C104.919 50.4858 105.323 50.029 105.562 49.4945C105.8 48.9601 105.862 48.372 105.741 47.8046C105.619 47.2372 105.319 46.716 104.879 46.3069C104.438 45.8978 103.877 45.6193 103.266 45.5064C102.655 45.3935 102.021 45.4515 101.446 45.6728C100.87 45.8942 100.378 46.2691 100.032 46.7502C99.6857 47.2312 99.501 47.7967 99.501 48.3752C99.5019 49.1507 99.8341 49.8942 100.425 50.4426C101.015 50.9909 101.816 51.2994 102.651 51.3002Z" fill="#1E3163"/>
<path d="M42.8078 102.001H36.5074C35.9504 102.001 35.4162 102.206 35.0223 102.572C34.6285 102.938 34.4072 103.434 34.4072 103.951V127.351C34.4072 128.902 35.071 130.39 36.2526 131.488C37.4341 132.585 39.0367 133.201 40.7077 133.201C42.3786 133.201 43.9812 132.585 45.1627 131.488C46.3443 130.39 47.0081 128.902 47.0081 127.351V115.956C47.7021 113.891 47.8883 111.708 47.5532 109.568C47.218 107.427 46.37 105.384 45.0715 103.588L44.5551 102.869C44.3633 102.602 44.1035 102.383 43.7987 102.232C43.4939 102.08 43.1535 102.001 42.8078 102.001ZM42.9157 115.034C42.8443 115.233 42.8078 115.441 42.8078 115.651V127.351C42.8078 127.868 42.5865 128.364 42.1927 128.73C41.7988 129.096 41.2647 129.301 40.7077 129.301C40.1507 129.301 39.6165 129.096 39.2226 128.73C38.8288 128.364 38.6075 127.868 38.6075 127.351V105.901H41.6821C42.6149 107.239 43.2103 108.755 43.4239 110.337C43.6374 111.918 43.4637 113.524 42.9157 115.034Z" fill="#1E3163"/>
<path d="M51.2051 127.351C51.2043 128.481 51.5559 129.586 52.2175 130.534C52.8792 131.482 53.8224 132.232 54.9332 132.693C56.044 133.153 57.2748 133.305 58.4767 133.13C59.6786 132.955 60.8002 132.461 61.7058 131.707C62.4162 132.298 63.262 132.731 64.1792 132.974C65.0964 133.217 66.0611 133.264 67.0005 133.111C67.94 132.957 68.8296 132.607 69.6023 132.088C70.375 131.569 71.0105 130.893 71.461 130.113C71.9115 129.332 72.1651 128.466 72.2028 127.581C72.2405 126.696 72.0612 125.815 71.6785 125.004C71.2957 124.193 70.7196 123.473 69.9934 122.898C69.2673 122.324 68.4102 121.91 67.4867 121.688L63.9196 111.751L65.7982 106.518C65.8696 106.319 65.906 106.111 65.9061 105.901V102.001H57.5055V105.901C57.5055 106.111 57.542 106.319 57.6134 106.518L59.492 111.751L55.9249 121.688C54.5746 122.014 53.379 122.747 52.525 123.772C51.671 124.797 51.2069 126.055 51.2051 127.351ZM57.5055 129.301C57.0901 129.301 56.6841 129.187 56.3387 128.972C55.9934 128.758 55.7242 128.454 55.5652 128.097C55.4063 127.741 55.3647 127.349 55.4457 126.971C55.5268 126.592 55.7268 126.245 56.0205 125.972C56.3142 125.699 56.6884 125.514 57.0958 125.438C57.5032 125.363 57.9254 125.402 58.3092 125.549C58.6929 125.697 59.0209 125.947 59.2517 126.268C59.4825 126.588 59.6057 126.965 59.6057 127.351C59.605 127.868 59.3836 128.364 58.9898 128.729C58.5961 129.095 58.0623 129.3 57.5055 129.301ZM65.9061 129.301C65.4907 129.301 65.0847 129.187 64.7393 128.972C64.3939 128.758 64.1248 128.454 63.9658 128.097C63.8068 127.741 63.7653 127.349 63.8463 126.971C63.9273 126.592 64.1273 126.245 64.4211 125.972C64.7148 125.699 65.089 125.514 65.4964 125.438C65.9037 125.363 66.326 125.402 66.7098 125.549C67.0935 125.697 67.4215 125.947 67.6523 126.268C67.8831 126.588 68.0062 126.965 68.0062 127.351C68.0056 127.868 67.7841 128.364 67.3904 128.729C66.9967 129.095 66.4629 129.3 65.9061 129.301ZM63.1966 122.07C62.6549 122.311 62.1529 122.623 61.7058 122.995C61.2587 122.623 60.7567 122.311 60.215 122.07L61.7058 117.918L63.1966 122.07Z" fill="#1E3163"/>
<path d="M77.0184 114.272C76.8234 114.453 76.6687 114.668 76.5632 114.904C76.4576 115.141 76.4033 115.394 76.4033 115.651V131.251C76.4033 131.768 76.6246 132.264 77.0184 132.629C77.4123 132.995 77.9465 133.201 78.5035 133.201H86.904C87.461 133.201 87.9952 132.995 88.3891 132.629C88.7829 132.264 89.0042 131.768 89.0042 131.251V127.351H84.8039V129.301H80.6036V116.458L82.7038 114.508L85.419 117.029L88.3891 114.272L84.8039 110.943V105.901C84.8039 105.538 84.6953 105.183 84.4902 104.875C84.2852 104.567 83.9919 104.318 83.643 104.157L79.4428 102.207L77.5642 105.695L80.6036 107.106V110.943L77.0184 114.272Z" fill="#1E3163"/>
<path d="M122.742 82.9468L109.685 81.0821C109.188 81.0133 108.735 80.7808 108.409 80.4272C108.082 80.0735 107.903 79.6224 107.906 79.1565V72.5523C108.267 72.2696 108.62 71.9768 108.959 71.667C110.613 70.1801 111.93 68.4005 112.831 66.4331C113.732 64.4658 114.2 62.3507 114.206 60.2127V55.7402L118.412 49.232C119.782 47.1106 120.506 44.6832 120.506 42.2093C120.501 37.3818 118.433 32.7536 114.756 29.3399C111.08 25.9262 106.096 24.0058 100.896 24H89.7157C86.4615 24.0002 83.2582 24.751 80.3937 26.185L82.3928 29.615C84.6427 28.4892 87.1586 27.8999 89.7144 27.9H100.896C104.982 27.9046 108.899 29.4138 111.788 32.0963C114.677 34.7789 116.302 38.4158 116.306 42.2093C116.306 43.9764 115.789 45.7102 114.81 47.2255L114.206 48.1598V47.4C114.206 45.9836 113.873 44.5843 113.23 43.2997C112.588 42.0152 111.651 40.8764 110.485 39.9629L113.591 37.0789L110.621 34.3211L106.621 38.0354C105.673 37.7799 104.692 37.6502 103.705 37.65H102.903L105.584 32.6721L101.827 30.9279L98.2071 37.65H92.7441L91.0417 31.3271L86.9669 32.2729L88.4147 37.65H86.9042C85.9176 37.6502 84.9361 37.7799 83.9886 38.0354L79.9887 34.3211L77.0185 37.0789L80.1246 39.9629C78.9588 40.8764 78.0218 42.0152 77.3791 43.2997C76.7363 44.5843 76.4034 45.9836 76.4035 47.4V48.1598L75.7997 47.2255C74.8206 45.7102 74.3034 43.9764 74.3033 42.2093C74.3013 40.1112 74.7971 38.0385 75.7556 36.1385C76.7141 34.2384 78.1117 32.5579 79.849 31.2162L77.1582 28.2215C74.9478 29.9287 73.1697 32.0671 71.9503 34.4847C70.7309 36.9024 70.1002 39.5397 70.103 42.2093C70.1032 44.6833 70.8273 47.1107 72.1979 49.2323L76.4035 55.7404V60.213C76.4095 62.3509 76.877 64.466 77.7783 66.4334C78.6796 68.4007 79.9964 70.1804 81.6509 71.6673C81.9896 71.9771 82.3429 72.2698 82.7039 72.5526V79.1558C82.7062 79.6216 82.5276 80.0727 82.2009 80.4264C81.8743 80.78 81.4213 81.0125 80.9251 81.0814L67.8674 82.9461C65.964 83.2135 64.1362 83.8274 62.4891 84.7527C60.842 85.6779 59.408 86.8962 58.2695 88.3376L61.6497 90.6532C62.463 89.6236 63.4874 88.7533 64.6641 88.0924C65.8407 87.4315 67.1464 86.9929 68.5061 86.8019L80.3696 85.1079C85.0101 87.2505 90.1222 88.3656 95.3047 88.3656C100.487 88.3656 105.599 87.2505 110.24 85.1079L122.104 86.8019C124.588 87.1456 126.855 88.3089 128.49 90.0786C130.125 91.8483 131.019 94.1059 131.007 96.4376V132.392L119.891 122.071L118.406 120.692V103.95H114.206V116.792L105.19 108.421C104.995 108.24 104.764 108.096 104.509 107.998C104.254 107.9 103.981 107.85 103.705 107.85H97.4049V102C97.4024 99.932 96.5165 97.9494 94.9417 96.4871C93.3668 95.0249 91.2315 94.2023 89.0043 94.2H34.4006C32.1734 94.2023 30.0381 95.0249 28.4632 96.4871C26.8884 97.9494 26.0025 99.932 26 102V133.2C26.0025 135.268 26.8884 137.251 28.4632 138.713C30.0381 140.175 32.1734 140.998 34.4006 141H89.0043C91.2315 140.998 93.3668 140.175 94.9417 138.713C96.5165 137.251 97.4024 135.268 97.4049 133.2V129.3H93.2046V133.2C93.2033 134.234 92.7603 135.225 91.9729 135.956C91.1855 136.687 90.1179 137.099 89.0043 137.1H34.4006C33.287 137.099 32.2194 136.687 31.432 135.956C30.6446 135.225 30.2016 134.234 30.2003 133.2V102C30.2016 100.966 30.6446 99.9748 31.432 99.2436C32.2194 98.5125 33.287 98.1012 34.4006 98.1H89.0043C90.1179 98.1012 91.1855 98.5125 91.9729 99.2436C92.7603 99.9748 93.2033 100.966 93.2046 102V107.85H91.1045C90.5475 107.85 90.0133 108.055 89.6194 108.421C89.2256 108.787 89.0043 109.283 89.0043 109.8V123.45C89.0043 123.967 89.2256 124.463 89.6194 124.829C90.0133 125.195 90.5475 125.4 91.1045 125.4H100.416L105.986 134.02L108.014 139.667L111.998 138.433L110.308 133.727L118.406 126.208L131.622 138.479C131.916 138.752 132.29 138.937 132.698 139.013C133.105 139.088 133.527 139.049 133.911 138.902C134.295 138.754 134.623 138.504 134.854 138.183C135.084 137.863 135.207 137.486 135.207 137.1V96.4376C135.224 93.173 133.973 90.0122 131.684 87.5344C129.394 85.0567 126.22 83.428 122.742 82.9468ZM82.2823 66.0571C85.8806 66.3118 89.4939 66.4634 93.0694 66.5068L93.1243 62.6068C89.0256 62.5569 84.8754 62.3619 80.7581 62.0279C80.6556 61.4274 80.604 60.8203 80.6037 60.2122V57.3638C90.3784 58.3007 100.231 58.3007 110.006 57.3638V60.2127C110.006 60.8207 109.954 61.4277 109.851 62.0282C105.847 62.3531 101.808 62.5471 97.8176 62.6029L97.8808 66.5029C101.345 66.4542 104.844 66.304 108.327 66.0574C108.182 66.0676 107.502 67.2491 107.369 67.4136C106.97 67.906 106.534 68.3716 106.064 68.8066C105.11 69.6884 104.028 70.4423 102.85 71.0464C100.313 72.3483 97.3605 72.8175 94.4849 72.7442C92.0045 72.6927 89.5799 72.0508 87.4433 70.8799C85.3067 69.709 83.5296 68.0484 82.2823 66.0571ZM103.705 41.55C105.376 41.5518 106.977 42.1687 108.158 43.2654C109.339 44.3621 110.004 45.849 110.006 47.4V53.4426L109.668 53.4752C100.118 54.3973 90.4911 54.3973 80.9411 53.4752L80.6037 53.4426V47.4C80.6057 45.849 81.2701 44.3621 82.4512 43.2654C83.6324 42.1687 85.2338 41.5518 86.9042 41.55H103.705ZM85.4653 82.8868C86.3992 81.8372 86.9082 80.5172 86.9042 79.1558V75.0317C89.2497 76.0323 91.7896 76.5802 94.3699 76.6422C95.9562 76.7017 97.5449 76.6104 99.1113 76.3697C99.6124 76.2866 103.705 75.5227 103.705 75.0317V79.1558C103.701 80.5172 104.21 81.8371 105.144 82.8868C98.7796 84.9875 91.8299 84.9875 85.4653 82.8868ZM108.322 130.056L103.406 122.447C103.219 122.158 102.956 121.919 102.64 121.753C102.324 121.587 101.968 121.5 101.605 121.5H93.2046V111.75H102.835L115.436 123.45L108.322 130.056Z" fill="#1E3163"/>
<path d="M98.37 93.7941L98.4265 95.7441C98.7134 95.737 105.528 95.5247 112.394 91.7334L110.247 88.3813C106.602 90.3615 102.52 91.5462 98.3086 91.8458L98.37 93.7941Z" fill="#1E3163"/>
</svg>
