<svg width="170" height="170" viewBox="0 0 170 170" fill="none" xmlns="http://www.w3.org/2000/svg">
<path d="M90.3138 25C69.6549 25 50.6019 40.516 46.6449 57.6039C45.7664 61.4019 44.7707 71.3259 44.7707 71.3259L35.282 95.2799C35.0914 95.7068 35 96.2002 35 96.7053C35 98.7283 36.6332 100.37 38.6648 100.37H44.7703V113.096C44.7703 123.023 52.7996 131.062 62.7153 131.062H69.8492V145H96.3622V138.779H107.161V145H118.436L118.436 106.35C129.032 98.0185 135.847 85.0681 135.847 70.5461C135.847 45.3872 115.472 25.0002 90.3138 25.0002L90.3138 25ZM55.9749 80.3999C53.1515 80.3999 50.8593 78.1116 50.8593 75.2878C50.8593 72.4726 53.1527 70.189 55.9749 70.189C58.7733 70.189 61.069 72.4726 61.069 75.2878C61.0698 78.1128 58.7729 80.3999 55.9749 80.3999ZM96.3618 113.854H107.161V119.694H96.3618V113.854ZM96.3618 105.544H107.161V111.38H96.3618V105.544ZM96.3618 122.156H107.161V128.005H96.3618V122.156ZM96.3618 130.469H107.161V136.317H96.3618V130.469ZM96.3618 97.2356H107.227C107.206 97.6618 107.161 98.0852 107.161 98.5243V103.076H96.3618L96.3618 97.2356ZM126.258 63.5736C126.258 66.683 125.039 69.5052 123.057 71.6076C122.718 76.0428 119.907 79.7869 115.989 81.4752V81.5158C111.206 84.3021 108.345 89.0564 107.475 94.7618L103.052 94.7622V81.5282C103.081 77.4024 104.378 74.7614 107.098 73.1317C108.093 72.5595 108.997 71.9051 109.768 71.1794C111.787 71.904 113.573 73.3274 114.709 75.3493C114.945 75.7478 115.369 75.9708 115.786 75.9708C115.989 75.9708 116.201 75.9204 116.391 75.8087C116.997 75.4775 117.213 74.7228 116.872 74.1263H116.864C115.591 71.863 113.655 70.1927 111.458 69.1978C112.585 67.465 113.211 65.4009 113.183 62.9216C113.183 62.9095 113.2 62.8962 113.2 62.8794C113.2 61.7599 113.033 60.67 112.736 59.6466C115.317 59.1533 117.593 57.8443 119.267 55.9974C119.732 55.4873 119.698 54.7036 119.186 54.2479C118.674 53.7881 117.904 53.8291 117.448 54.326C115.989 55.9135 114.021 56.9994 111.782 57.2983C109.983 53.9659 106.637 51.5983 102.716 51.1674C102.978 49.0529 103.93 47.1678 105.364 45.7338C105.837 45.2525 105.837 44.4678 105.364 43.9912C104.884 43.5064 104.088 43.5064 103.606 43.9912C101.771 45.8283 100.543 48.2822 100.236 51.0146C95.6303 50.4337 92.0831 46.5255 92.0745 41.765C92.0745 41.0892 91.5139 40.5255 90.8507 40.5255C90.1499 40.5255 89.6027 41.0896 89.6027 41.765C89.6027 42.5689 89.6808 43.3357 89.8343 44.0908C88.0894 45.6006 85.9175 46.3635 83.7417 46.3635C82.6679 46.3635 81.5901 46.1729 80.5737 45.8041C80.5737 45.8041 80.5569 45.8006 80.5448 45.7955C79.2932 45.3432 78.1448 44.6256 77.1499 43.6307C76.6734 43.1495 75.8852 43.1495 75.4004 43.6307C74.9156 44.1108 74.9156 44.8909 75.4004 45.3768C76.4202 46.392 77.5687 47.1791 78.7913 47.7479C78.5464 50.8272 76.7561 53.4768 74.2531 54.9647C72.8058 52.7674 70.6293 51.0264 67.9554 50.1768C67.2882 49.9694 66.5956 50.3291 66.3847 50.9807C66.2022 51.6311 66.5347 52.3237 67.1936 52.5276C69.1784 53.1577 70.7745 54.3803 71.9229 55.9393C71.1515 56.1467 70.3604 56.2584 69.5182 56.2584H69.5061H69.3694C66.194 56.2584 63.2756 57.5232 61.153 59.592C60.6515 60.0686 60.6394 60.8522 61.1315 61.3381C61.3679 61.5866 61.6921 61.7112 62.028 61.7112C62.31 61.7112 62.621 61.5948 62.8608 61.362C64.5432 59.7206 66.8401 58.7304 69.3682 58.7304H69.5159C75.469 58.7304 80.4139 54.2976 81.1889 48.5514C82.0349 48.7338 82.8795 48.8334 83.7389 48.8334C86.1557 48.8334 88.5928 48.0834 90.6447 46.599C91.3947 48.3115 92.5802 49.808 94.0189 50.9681C92.5513 52.7751 91.6896 54.922 91.4619 57.1193C90.8428 57.0197 90.1924 56.9658 89.542 56.9658C87.676 56.9658 85.7822 57.4099 84.021 58.3517C83.4163 58.6708 83.1881 59.4208 83.5061 60.0271C83.7303 60.4376 84.1651 60.6775 84.6088 60.6775C84.8115 60.6775 84.994 60.6318 85.1729 60.5275C86.5901 59.7861 88.0745 59.433 89.542 59.433C90.197 59.433 90.8428 59.5037 91.4619 59.6357C91.7306 62.1388 92.8131 64.5892 94.6744 66.5369C94.9228 66.7935 95.2431 66.9185 95.5611 66.9185C95.8634 66.9185 96.179 66.8068 96.424 66.5791C96.929 66.1025 96.9423 65.3275 96.4611 64.8342H96.4513C94.7978 63.0846 93.924 60.8623 93.8654 58.6158C93.8654 58.5822 93.874 58.5584 93.8654 58.5197V58.383C93.8654 56.2014 94.6201 54.0451 96.1119 52.3123C97.6838 53.0959 99.4744 53.5518 101.369 53.5518C101.369 53.5518 101.377 53.5553 101.389 53.5553H101.411C106.542 53.5721 110.696 57.7194 110.717 62.8506C109.742 62.5939 108.74 62.4607 107.712 62.4607C106.24 62.4607 104.748 62.7307 103.309 63.3236C102.671 63.5842 102.369 64.3018 102.626 64.9314C102.887 65.5615 103.596 65.8674 104.229 65.6107C105.383 65.1498 106.555 64.9268 107.712 64.9268C108.644 64.9268 109.568 65.0682 110.436 65.3373C110.133 66.7221 109.54 67.8334 108.619 68.8197C108.548 68.8822 108.483 68.9517 108.429 69.0345C107.724 69.7271 106.879 70.3654 105.834 71.0001C102.258 73.0892 100.54 76.8778 100.578 81.5231V94.7551H96.3575L96.3579 82.1751C96.3579 77.5528 93.4599 73.1704 89.813 71.6111C88.072 70.9354 86.2564 69.8041 84.9338 68.3244C83.0475 69.6049 80.7842 70.3596 78.3506 70.3596C75.91 70.3596 73.6467 69.6182 71.7721 68.3448C69.9073 69.5714 67.6561 70.2889 65.2479 70.2889C58.6276 70.2889 53.2759 64.9248 53.2759 58.313C53.2759 53.37 56.265 49.1306 60.5431 47.307C61.6997 42.0332 66.3716 38.0875 71.9921 38.0875C72.2909 38.0875 72.5643 38.1129 72.8417 38.1281C74.9608 35.032 78.5214 33.0004 82.5546 33.0004C84.5526 33.0004 86.4269 33.4985 88.0722 34.3852C89.9296 33.1504 92.1511 32.4329 94.5436 32.4329C97.6155 32.4329 100.414 33.6306 102.51 35.5743C103.389 35.363 104.297 35.2384 105.246 35.2384C109.992 35.2384 114.096 38.0943 115.928 42.1864C120.745 43.6458 124.252 48.1145 124.252 53.4053C124.252 54.4662 124.111 55.4897 123.851 56.4643C125.353 58.4381 126.257 60.9006 126.257 63.5741L126.258 63.5736Z" fill="#1E3163"/>
</svg>
