<svg width="170" height="170" viewBox="0 0 170 170" fill="none" xmlns="http://www.w3.org/2000/svg">
<path d="M84.6942 25C95.6113 25 105.537 29.4635 112.729 36.6592C119.922 43.8516 124.388 53.7734 124.388 64.6942V105.306C124.388 116.223 119.925 126.148 112.729 133.341C105.537 140.533 95.615 145 84.6942 145C73.7771 145 63.8518 140.537 56.6592 133.341C49.4668 126.148 45 116.227 45 105.306V64.6942C45 53.7771 49.4635 43.8518 56.6592 36.6592C63.8516 29.4668 73.7769 25 84.6942 25ZM90.3841 70.8111C90.9717 69.3788 92.6099 68.6955 94.0429 69.2831C95.4752 69.8707 96.1585 71.5089 95.5709 72.9419C94.6784 75.1131 93.1572 76.957 91.2329 78.2459C89.3556 79.5057 87.1042 80.2402 84.694 80.2402C82.2845 80.2402 80.0366 79.5057 78.1552 78.2459C76.23 76.9562 74.7064 75.1087 73.8172 72.9419C73.2296 71.5096 73.9128 69.875 75.3452 69.2831C76.7775 68.6955 78.4165 69.3788 79.004 70.8111C79.4703 71.9462 80.2672 72.9121 81.2775 73.5877C82.2435 74.2342 83.4187 74.616 84.6939 74.616C85.9682 74.616 87.1443 74.2376 88.1103 73.5877C89.1164 72.9121 89.9175 71.9461 90.3837 70.8111H90.3841ZM97.1101 59.2219C98.6637 59.2219 99.9202 60.4817 99.9202 62.0352C99.9202 63.5888 98.6604 64.8453 97.1101 64.8453H94.4172C92.8636 64.8453 91.6039 63.5855 91.6039 62.0352C91.6039 60.4816 92.8637 59.2219 94.4172 59.2219H97.1101ZM72.2739 64.8461C70.7203 64.8461 69.4606 63.5864 69.4606 62.0361C69.4606 60.4825 70.7203 59.2227 72.2739 59.2227H74.9668C76.5204 59.2227 77.7801 60.4825 77.7801 62.0361C77.7801 63.5897 76.5203 64.8461 74.9668 64.8461H72.2739ZM50.6234 95.2141L109.12 128.986C115.079 122.845 118.755 114.484 118.755 105.309V64.6975C118.755 55.3306 114.924 46.8154 108.745 40.6418C102.57 34.4668 94.0525 30.6319 84.6898 30.6319C75.3229 30.6319 66.8077 34.4668 60.6342 40.6418C54.4591 46.8169 50.6243 55.3348 50.6243 64.7018V95.2185L50.6234 95.2141ZM104.647 132.872L50.6234 101.682V105.307C50.6234 114.674 54.4548 123.189 60.6333 129.363C66.8084 135.538 75.3262 139.373 84.6889 139.373C92.1238 139.373 99.0257 136.956 104.646 132.872L104.647 132.872ZM84.6903 37.6551C92.1584 37.6551 98.9168 40.6821 103.81 45.5752C108.703 50.4683 111.73 57.2267 111.73 64.6948C111.73 72.1588 108.703 78.9214 103.81 83.8145C98.9168 88.7076 92.1584 91.7346 84.6903 91.7346C77.2263 91.7346 70.4637 88.7076 65.5706 83.8145C60.6775 78.9214 57.6505 72.163 57.6505 64.6948C57.6505 57.2267 60.6775 50.4683 65.5706 45.5752C70.4637 40.6821 77.2221 37.6551 84.6903 37.6551ZM99.8316 49.5526C95.9565 45.6775 90.6005 43.2818 84.6903 43.2818C78.7765 43.2818 73.424 45.6766 69.5489 49.5526C65.6738 53.4277 63.2781 58.7802 63.2781 64.694C63.2781 70.6077 65.6729 75.9602 69.5489 79.8353C73.424 83.7104 78.78 86.1061 84.6903 86.1061C90.604 86.1061 95.9565 83.7113 99.8316 79.8353C103.707 75.9602 106.102 70.6077 106.102 64.694C106.102 58.7802 103.704 53.4242 99.8316 49.5526Z" fill="#1E3163"/>
</svg>
