<svg width="170" height="120" viewBox="0 0 170 120" fill="none" xmlns="http://www.w3.org/2000/svg">
<path d="M163.032 63.4129H146.446C152.172 54.8408 154.794 46.7332 154.794 37.887C154.794 27.3307 151.245 17.6669 144.8 10.6781C138.45 3.79258 129.721 0 120.22 0C113.261 0 106.869 2.21157 101.229 6.57588C96.2001 10.4654 92.941 15.5413 90.6445 18.825C90.0827 19.629 88.4981 22.3325 87.2834 24.4247C86.5999 25.5999 84.9009 25.5901 84.2297 24.4075C82.9942 22.2328 81.4096 19.436 81.1122 18.9444C79.0481 15.5097 75.0836 10.4239 70.1133 6.57975C64.4706 2.21566 58.0794 0.00387529 51.1199 0.00387529C41.6185 0.00387529 32.89 3.79645 26.5417 10.682C20.0964 17.672 16.5471 27.3346 16.5471 37.8909C16.5471 47.5598 19.6721 56.3408 26.5662 65.8152H6.15788C3.29351 65.8152 0.694826 67.7575 0.126774 70.5629C-0.653865 74.4244 2.27687 77.8135 5.99927 77.8135H36.8827C45.2386 86.3771 78.0311 114.326 83.7337 119.273C84.2906 119.757 84.9852 120 85.6797 120C86.3755 120 87.0701 119.757 87.6295 119.27C93.3005 114.335 128.082 84.6862 136.746 75.4117H163.189C166.912 75.4117 169.843 72.0214 169.062 68.1611C168.494 65.3545 165.894 63.4121 163.031 63.4121L163.032 63.4129ZM85.673 105.096C81.979 101.925 57.3305 80.9165 50.1422 74.047L59.0155 56.3347C59.6166 55.1361 61.2824 55.0206 62.0433 56.1245L80.5203 82.9498C82.5192 85.8523 86.7431 86.0231 88.9709 83.294L105.937 62.4999C106.649 61.627 107.986 61.6381 108.685 62.5208L119.754 75.4129C112.848 81.9063 89.2549 102.016 85.6735 105.096L85.673 105.096ZM131.4 63.4034C131.393 63.4071 131.388 63.4084 131.381 63.4121H124.682L111.557 46.7975C109.461 44.1446 105.448 44.1139 103.313 46.7324L86.8137 66.9538C86.0712 67.8635 84.6636 67.8069 83.9973 66.8395L63.7919 37.5088C61.5091 34.1958 56.5117 34.5424 54.711 38.1394L41.2854 64.9402C40.5687 64.1313 30.1242 54.1418 28.5481 37.8861C27.8216 30.3884 30.9699 23.579 35.3648 18.8105C39.4141 14.4169 45.01 11.9986 51.1198 11.9986C55.42 11.9986 59.2321 13.3288 62.7713 16.0666C66.1482 18.6789 69.25 22.4961 70.8185 25.106C71.0754 25.5412 72.5346 28.1166 75.2317 32.9171C78.0149 37.843 83.9957 40.3399 89.7168 38.3915C92.6021 37.408 94.9439 35.2493 96.4476 32.5989C98.5325 28.9206 100.076 26.311 100.501 25.669C100.729 25.3432 100.965 24.999 101.212 24.6438C103.123 21.8802 105.502 18.4443 108.57 16.0704C112.111 13.3339 115.923 12.0012 120.222 12.0012C126.331 12.0012 131.929 14.4205 135.979 18.8131C140.374 23.5803 142.796 30.3554 142.796 37.8887C142.795 46.4091 139.399 53.9855 131.4 63.4035L131.4 63.4034Z" fill="#1E3163"/>
</svg>
