<svg width="170" height="170" viewBox="0 0 170 170" fill="none" xmlns="http://www.w3.org/2000/svg">
<rect width="170" height="170" fill="white"/>
<path d="M153.653 88.4863H139.14C144.15 80.9857 146.445 73.8916 146.445 66.1512C146.445 56.9144 143.34 48.4585 137.7 42.3434C132.144 36.3185 124.505 33 116.193 33C110.103 33 104.511 34.9351 99.5755 38.7539C95.1751 42.1572 92.3233 46.5987 90.314 49.4719C89.8224 50.1754 88.4358 52.5409 87.373 54.3716C86.7749 55.3999 85.2883 55.3913 84.701 54.3565C83.62 52.4537 82.2334 50.0065 81.9731 49.5764C80.1671 46.5709 76.6981 42.1209 72.3492 38.7573C67.4118 34.9387 61.8195 33.0034 55.7299 33.0034C47.4162 33.0034 39.7788 36.3219 34.224 42.3467C28.5844 48.463 25.4787 56.9178 25.4787 66.1546C25.4787 74.6148 28.2131 82.2982 34.2454 90.5883H16.3881C13.8818 90.5883 11.608 92.2878 11.1109 94.7425C10.4279 98.1213 12.9923 101.087 16.2494 101.087H43.2724C50.5838 108.58 79.2772 133.035 84.267 137.364C84.7543 137.787 85.362 138 85.9698 138C86.5786 138 87.1864 137.787 87.6758 137.361C92.638 133.043 123.072 107.1 130.653 98.9853H153.791C157.048 98.9853 159.612 96.0187 158.929 92.641C158.432 90.1852 156.157 88.4856 153.652 88.4856L153.653 88.4863ZM85.9639 124.959C82.7316 122.184 61.1642 103.802 54.8744 97.7911L62.6385 82.2929C63.1646 81.2441 64.6221 81.143 65.2879 82.109L81.4553 105.581C83.2043 108.121 86.9002 108.27 88.8496 105.882L103.695 87.6874C104.318 86.9237 105.488 86.9333 106.099 87.7057L115.784 98.9863C109.742 104.668 89.0981 122.264 85.9643 124.959L85.9639 124.959ZM125.975 88.478C125.969 88.4812 125.965 88.4823 125.958 88.4855H120.097L108.612 73.9479C106.778 71.6266 103.267 71.5997 101.399 73.8908L86.962 91.5846C86.3123 92.3806 85.0807 92.3311 84.4976 91.4845L66.8179 65.8202C64.8204 62.9213 60.4478 63.2246 58.8721 66.372L47.1247 89.8226C46.4976 89.1149 37.3587 80.3741 35.9796 66.1503C35.3439 59.5899 38.0987 53.6317 41.9442 49.4592C45.4874 45.6148 50.3838 43.4988 55.7298 43.4988C59.4925 43.4988 62.8281 44.6627 65.9249 47.0583C68.8797 49.3441 71.5937 52.6841 72.9662 54.9678C73.191 55.3485 74.4678 57.6021 76.8277 61.8025C79.263 66.1126 84.4963 68.2974 89.5022 66.5926C92.0268 65.732 94.0759 63.8431 95.3916 61.5241C97.216 58.3055 98.5669 56.0222 98.9381 55.4604C99.1382 55.1753 99.3447 54.8742 99.5609 54.5633C101.233 52.1452 103.314 49.1387 105.999 47.0616C109.097 44.6672 112.432 43.5011 116.194 43.5011C121.54 43.5011 126.437 45.618 129.982 49.4615C133.827 53.6328 135.946 59.561 135.946 66.1526C135.945 73.608 132.974 80.2373 125.975 88.4781L125.975 88.478Z" fill="#1E3163"/>
</svg>
