<svg width="170" height="170" viewBox="0 0 170 170" fill="none" xmlns="http://www.w3.org/2000/svg">
<path d="M124.542 122.113L104.26 67.3239C103.978 66.4789 103.837 65.6338 103.837 64.7887V37.0423H107.922C109.894 37.0423 111.443 35.493 111.443 33.5211C111.443 31.5493 109.894 30 107.922 30H61.8656C59.8938 30 58.3445 31.5493 58.3445 33.5211C58.3445 35.493 59.8938 37.0423 61.8656 37.0423H65.2459V64.6479C65.2459 65.6338 65.1051 66.6197 64.6825 67.4648L44.8234 122.113C43.2741 126.197 43.9783 130.845 46.3727 134.366C48.9079 137.887 52.9924 140 57.3586 140H112.006C116.373 140 120.457 137.887 122.992 134.225C125.528 130.845 126.091 126.197 124.542 122.113ZM71.3022 69.8592C71.8656 68.169 72.2882 66.338 72.2882 64.6479V59.8592H84.4008C85.5276 59.8592 86.5135 58.8732 86.5135 57.7465C86.5135 56.6197 85.5276 55.6338 84.4008 55.6338H72.2882V50H84.4008C85.5276 50 86.5135 49.0141 86.5135 47.8873C86.5135 46.7606 85.5276 45.7746 84.4008 45.7746H72.2882V37.0423H96.7952V64.7887C96.7952 66.4789 97.0769 68.169 97.6403 69.7183L103.837 86.6197H65.2459L71.3022 69.8592ZM117.218 130.423C115.95 132.113 114.119 133.099 112.006 133.099H57.3586C55.2459 133.099 53.4149 132.113 52.1473 130.423C50.8797 128.732 50.7389 126.62 51.4431 124.648L62.7107 93.8028H106.514L117.922 124.648C118.626 126.479 118.345 128.592 117.218 130.423Z" fill="#1E3163"/>
</svg>
