<svg width="170" height="170" viewBox="0 0 170 170" fill="none" xmlns="http://www.w3.org/2000/svg">
<path d="M137.339 61.489C133.389 51.2655 122.012 41.0428 107.95 41.0428H107.634C96.7317 41.1997 87.2524 45.6033 83.9339 47.3333C78.8772 46.0749 71.926 43.4014 70.3457 40.8847C67.5023 36.6379 66.712 31.1338 66.712 31.1338C66.712 30.6621 66.3957 30.0323 66.0805 29.7186C64.8163 27.9885 61.1827 25 56.5998 25C55.3357 25 54.2303 25.1569 53.1238 25.4717C45.2237 27.8304 44.276 35.2226 44.1171 35.5374C44.1171 36.0092 44.1172 36.3241 44.2748 36.7958L46.6443 44.9745C48.0661 49.5349 51.5421 58.1854 59.7584 63.2188C63.7085 65.7355 67.0271 67.4656 69.0802 68.5659C68.29 70.4529 67.6585 73.2845 67.6585 76.4298C67.8161 82.5635 66.8682 86.4955 65.1302 89.0122V89.169L64.9726 89.3259C64.815 89.4828 64.815 89.6408 64.6563 89.6408C63.2345 91.056 62.128 91.3709 59.5997 91.9995C57.5453 92.4712 54.8594 93.2578 51.0682 94.8299C41.7464 98.7618 36.3746 103.637 33.056 119.05C29.4223 135.406 29.8963 136.979 30.2126 137.923C30.8441 139.653 34.9529 144.371 40.9561 145H41.9039C47.9083 145 51.6997 139.653 51.8583 139.338C52.1746 138.866 52.3322 138.395 52.3322 137.923C52.3322 137.923 52.6485 135.406 53.9127 129.43C54.8605 125.184 56.7561 121.567 57.8627 120.465C58.4942 120.78 59.4432 121.409 60.2323 121.88C64.4986 124.554 71.4509 129.116 81.4042 129.272H82.9846C90.5684 129.272 116.639 127.699 131.017 107.254C133.229 104.109 135.125 100.806 136.548 97.5033C143.66 80.6764 138.919 65.7327 137.339 61.489ZM54.7039 31.6065C55.3354 31.4496 55.8105 31.2916 56.442 31.2916C57.7061 31.2916 58.8116 31.7634 59.6017 32.3931C58.4952 34.1232 57.2322 35.2235 55.8094 35.5383C54.0714 36.0101 52.1757 35.3815 50.7528 34.5949C51.5441 33.4945 52.6495 32.0783 54.7039 31.6065ZM63.078 57.8717C56.4419 53.7828 53.5973 46.2329 52.6496 43.2455L52.1757 41.6723C52.9659 41.8292 53.7562 41.9872 54.704 41.9872C55.6518 41.9872 56.442 41.8303 57.3899 41.6723C59.1279 41.2006 60.8659 40.4139 62.2876 38.9987C62.9191 40.7288 63.8681 42.6158 65.1311 44.504C68.9234 50.1659 81.2475 53.3112 83.7747 53.783C84.5649 53.9399 85.3551 53.783 86.1442 53.4682C86.3018 53.4682 96.4138 47.4914 107.79 47.4914L107.95 47.4925C119.01 47.4925 128.332 55.9848 131.334 64.0068C132.598 67.3102 136.232 78.6329 131.65 92.1593C131.493 92.0024 131.334 91.8444 131.019 91.5306C129.123 89.6437 126.437 87.2839 121.697 87.2839C116.799 87.2839 114.271 89.8006 112.375 91.6876C110.637 93.2609 109.689 94.2043 107.318 94.2043C104.949 94.2043 104 93.2608 102.262 91.6876C100.366 89.8007 97.6804 87.2839 92.94 87.2839C88.0423 87.2839 85.514 89.8006 83.4594 91.6876C81.8789 93.2609 80.7735 94.2043 78.4028 94.2043C76.0332 94.2043 75.0842 93.2608 73.3462 91.6876C73.1886 91.5308 73.0299 91.3728 72.8723 91.2159C72.7147 91.059 72.556 90.901 72.3983 90.7442C72.082 90.4293 71.9244 90.2724 71.6081 90.1155C73.6625 85.8688 73.8201 80.6784 73.8201 76.5897C73.8201 72.343 75.7158 69.0407 75.7158 69.0407C76.1897 68.2541 76.3473 67.3106 76.0321 66.3672C75.7158 65.4237 75.0842 64.794 74.1364 64.3223C74.4538 64.1643 70.03 62.2754 63.078 57.8717Z" fill="#1E3163"/>
<path d="M112.532 87.1253C112.532 89.8186 110.339 92.0006 107.635 92.0006C104.929 92.0006 102.737 89.8185 102.737 87.1253C102.737 84.4331 104.929 82.25 107.635 82.25C110.339 82.25 112.532 84.4332 112.532 87.1253Z" fill="#1E3163"/>
<path d="M114.587 78.0032C114.587 79.6542 113.242 80.9917 111.585 80.9917C109.926 80.9917 108.582 79.6544 108.582 78.0032C108.582 76.3532 109.926 75.0157 111.585 75.0157C113.242 75.0157 114.587 76.3531 114.587 78.0032Z" fill="#1E3163"/>
<path d="M80.1424 107.414C80.1424 109.064 78.7989 110.402 77.1401 110.402C75.4825 110.402 74.1378 109.064 74.1378 107.414C74.1378 105.763 75.4824 104.425 77.1401 104.425C78.7988 104.425 80.1424 105.763 80.1424 107.414Z" fill="#1E3163"/>
<path d="M81.4064 87.1252C81.4064 89.123 79.7797 90.7434 77.7726 90.7434C75.7657 90.7434 74.1378 89.123 74.1378 87.1252C74.1378 85.1274 75.7656 83.5081 77.7726 83.5081C79.7796 83.5081 81.4064 85.1274 81.4064 87.1252Z" fill="#1E3163"/>
<path d="M95.7843 94.3599C95.7843 96.3577 94.1564 97.977 92.1494 97.977C90.1424 97.977 88.5156 96.3577 88.5156 94.3599C88.5156 92.3621 90.1424 90.7428 92.1494 90.7428C94.1564 90.7428 95.7843 92.3621 95.7843 94.3599Z" fill="#1E3163"/>
<path d="M127.859 96.4045C127.859 99.6178 125.241 102.223 122.012 102.223C118.784 102.223 116.166 99.618 116.166 96.4045C116.166 93.1902 118.784 90.5845 122.012 90.5845C125.241 90.5845 127.859 93.19 127.859 96.4045Z" fill="#1E3163"/>
</svg>
