<svg width="170" height="170" viewBox="0 0 170 170" fill="none" xmlns="http://www.w3.org/2000/svg">
<path d="M109.782 48.2947C110.935 48.2947 111.87 49.2869 111.87 50.5106V51.4492L107.694 51.4497V50.5106C107.694 49.2869 108.628 48.2947 109.782 48.2947ZM52.1342 55.8828L52.1338 64.3207C52.1338 65.8055 53.2701 67.0112 54.6713 67.0112L62.6184 67.0133L62.6194 72.5562L54.6512 72.5587C53.2587 72.5673 52.1328 73.7688 52.1328 75.2491L52.1331 83.6824L46.9078 83.6846L46.9056 75.139C46.8523 73.7068 45.748 72.5672 44.3895 72.5565L44.3222 72.5587C44.0651 72.5578 43.1017 72.5576 41.931 72.5576C39.5901 72.5576 36.4214 72.5587 36.4214 72.5587L36.4225 67.0114L44.3695 67.0133C45.7706 67.0111 46.907 65.8061 46.907 64.3191L46.9066 55.885L52.1342 55.8828ZM54.6715 50.4976L44.3694 50.4998C44.3685 50.4976 44.3678 50.4998 44.3671 50.4998C42.9668 50.4998 41.8327 51.7049 41.8322 53.1907L41.8325 61.63L33.8856 61.6265C32.4849 61.6267 31.3491 62.8293 31.3488 64.3161L31.3474 75.2497C31.3477 76.7364 32.4837 77.9417 33.8847 77.9417L41.833 77.9439L41.8315 86.375C41.8319 87.8611 42.9669 89.0668 44.3678 89.0668L44.3683 89.069L54.6725 89.0668C56.0737 89.0668 57.209 87.8611 57.2094 86.3748L57.2078 77.9482L65.1561 77.9414C66.5571 77.9414 67.6931 76.7362 67.6934 75.2494L67.692 64.3158C67.6918 62.8289 66.5559 61.6243 65.1552 61.6241L57.2083 61.6278L57.2086 53.1905C57.2082 51.7037 56.0727 50.4983 54.6715 50.4976ZM108.271 95.9937C106.87 95.9937 105.734 97.1986 105.734 98.6852C105.734 100.172 106.869 101.377 108.27 101.377L113.071 101.377C114.472 101.377 115.608 100.173 115.608 98.686C115.608 97.1992 114.473 95.9939 113.072 95.9939L108.271 95.9937ZM29.9114 41.3876L89.1608 41.3898C91.8368 41.4204 93.9959 43.733 93.9959 46.5813C93.9959 46.5941 93.9959 70.4775 93.9959 70.4775C93.9959 71.9645 95.1319 73.1701 96.5331 73.1701C97.9258 73.1701 99.0565 71.9792 99.0702 70.5049L99.0704 56.8395L113.581 56.8384L113.585 56.8406L113.589 56.8427H113.593C125.302 56.8427 134.793 66.9196 134.793 79.3484C134.793 79.3557 134.793 82.5921 134.793 87.1621L134.781 87.1642L113.114 87.164C110.447 87.1168 108.297 84.8079 108.297 81.966C108.297 81.9585 108.297 66.0553 108.297 66.0553C108.297 64.5683 107.161 63.3627 105.76 63.3627V63.367V63.3713L105.756 63.3735L105.752 63.367C104.354 63.367 103.222 64.5709 103.222 66.0553V82.0307C103.254 87.8437 107.707 92.5476 113.193 92.5476L139.225 92.5513L139.229 92.5535L139.233 92.5557L139.237 92.5578L139.241 92.56L139.244 92.5622C139.246 92.5622 139.247 92.5622 139.248 92.5622C141.94 92.5622 144.118 94.8829 144.118 97.7434C144.118 97.7453 144.118 106.886 144.118 112.122L133.831 112.122L133.819 112.125C130.972 108.895 126.921 106.878 122.426 106.878C117.929 106.878 113.877 108.896 111.029 112.125L59.6546 112.121L59.6436 112.123C56.7961 108.894 52.7455 106.878 48.2513 106.878C43.7555 106.878 39.7039 108.895 36.8561 112.124L25.0747 112.121L25.0763 46.5813C25.0763 43.733 27.2354 41.4204 29.9114 41.3876ZM143.801 117.505L143.813 117.508C143.127 119.463 141.361 120.864 139.283 120.889L137.847 120.89C137.677 119.72 137.391 118.59 137.002 117.513H136.99L143.801 117.505ZM33.6779 117.504C33.2871 118.583 32.9999 119.718 32.8291 120.893L29.9098 120.895C27.8328 120.867 26.0672 119.469 25.3809 117.512H25.3886L33.6671 117.504H33.6779ZM107.852 117.505C107.461 118.583 107.174 119.72 107.003 120.895L63.6844 120.891L63.6762 120.893L63.6735 120.895C63.5033 119.721 63.217 118.59 62.8279 117.513H62.8168L107.84 117.505H107.852ZM48.2513 121.731C49.1402 121.731 49.8606 122.496 49.8606 123.439C49.8606 124.382 49.1402 125.147 48.2513 125.147C47.3625 125.147 46.6421 124.382 46.6421 123.439C46.6421 122.496 47.3625 121.731 48.2513 121.731ZM122.426 121.731C123.315 121.731 124.035 122.496 124.035 123.439C124.035 124.382 123.315 125.147 122.426 125.147C121.537 125.147 120.816 124.382 120.816 123.439C120.816 122.496 121.537 121.731 122.426 121.731ZM48.2513 116.346C44.5601 116.346 41.5676 119.522 41.5676 123.439C41.5676 127.356 44.5601 130.532 48.2513 130.532C51.9426 130.532 54.9351 127.356 54.9351 123.439C54.9351 119.522 51.9426 116.346 48.2513 116.346ZM122.426 116.346C118.734 116.346 115.742 119.522 115.742 123.439C115.742 127.356 118.734 130.532 122.426 130.532C126.117 130.532 129.109 127.356 129.109 123.439C129.109 119.522 126.117 116.346 122.426 116.346ZM48.2513 112.263C54.0677 112.263 58.7824 117.267 58.7824 123.439C58.7824 129.611 54.0673 134.615 48.2513 134.615C42.4349 134.615 37.7203 129.611 37.7203 123.439C37.7203 117.266 42.4349 112.263 48.2513 112.263ZM122.426 112.263C128.242 112.263 132.957 117.267 132.957 123.439C132.957 129.611 128.242 134.615 122.426 134.615C116.609 134.615 111.895 129.611 111.895 123.439C111.895 117.266 116.609 112.263 122.426 112.263ZM89.0994 36L29.9641 36.0043L29.9603 36.0065C29.959 36.0045 29.9577 36.0043 29.9564 36.0043C24.4591 36.0043 20.0107 40.7232 20.0018 46.5585C19.9999 47.8385 19.9998 115.471 20.0002 115.722C20.009 121.557 24.4574 126.276 29.9548 126.276L29.9586 126.278L29.9624 126.281L32.8638 126.28L32.8745 126.282C34.1439 134.073 40.5452 140 48.2513 140C55.9574 140 62.3596 134.072 63.6283 126.279L107.036 126.275L107.047 126.277L107.048 126.279C108.317 134.071 114.719 140 122.426 140C130.131 140 136.532 134.073 137.802 126.281L137.814 126.283L139.222 126.279C144.722 126.277 149.184 121.556 149.192 115.718V97.6646C149.154 92.087 145.054 87.5416 139.879 87.1845L139.867 87.1867C139.867 79.3539 139.867 79.3484 139.867 79.3484C139.867 65.1553 129.88 53.4369 116.956 51.6772L116.945 51.6794V50.5106C116.945 46.3123 113.738 42.909 109.782 42.909C105.826 42.909 102.619 46.3123 102.619 50.5106V51.4505L99.0704 51.4511V46.5585C99.0616 40.7205 94.6004 36 89.0994 36Z" fill="#1E3163"/>
</svg>
