<svg width="170" height="170" viewBox="0 0 170 170" fill="none" xmlns="http://www.w3.org/2000/svg">
<g clip-path="url(#clip0_91_165)">
<path d="M103.482 57.1738C101.039 57.1738 99.0488 59.1575 99.0488 61.6203C99.0488 64.0788 101.039 66.0614 103.482 66.0614C105.933 66.0614 107.916 64.0788 107.916 61.6203C107.916 59.1571 105.933 57.1738 103.482 57.1738Z" fill="#1E3163"/>
<path d="M102.44 93.5983C102.44 96.0567 104.439 98.0437 106.894 98.0437C109.337 98.0437 111.319 96.0568 111.319 93.5983C111.319 91.1419 109.337 89.155 106.894 89.155C104.438 89.155 102.44 91.1419 102.44 93.5983Z" fill="#1E3163"/>
<path d="M69.9832 52.3518C67.5248 52.3518 65.5342 54.3431 65.5342 56.8052C65.5342 59.2604 67.5244 61.2473 69.9832 61.2473C72.4464 61.2473 74.4333 59.2593 74.4333 56.8052C74.4333 54.3431 72.4464 52.3518 69.9832 52.3518Z" fill="#1E3163"/>
<path d="M90.0423 30C70.9318 30 53.3069 44.3458 49.6439 60.155C48.8146 63.6693 47.9066 72.8479 47.9066 72.8479L39.1064 95.0062C38.9377 95.4044 38.8535 95.8543 38.8535 96.3258C38.8535 98.1939 40.3841 99.7201 42.2601 99.7201H47.9066V111.492C47.9066 120.671 55.3434 128.107 64.5113 128.107H71.1113V141H116.051V105.252C125.852 97.5416 132.146 85.5648 132.146 72.1264C132.146 48.8581 113.29 30.0001 90.0424 30.0001L90.0423 30ZM58.251 81.245C55.6747 81.245 53.5678 79.1391 53.5678 76.534C53.5678 73.9444 55.6737 71.8421 58.251 71.8421C60.8518 71.8421 62.9685 73.9444 62.9685 76.534C62.9685 79.1406 60.8518 81.245 58.251 81.245ZM120.405 74.8813L116.025 79.2624L110.683 75.4905C109.654 76.0278 108.573 76.4538 107.445 76.7414L106.459 82.5533H108.499L109.044 85.6604C109.258 85.7182 109.474 85.7493 109.685 85.8259C110.233 86.029 110.739 86.2898 111.211 86.5897L113.674 84.8593L115.694 86.8773L113.881 89.4514C114.272 90.1419 114.579 90.8779 114.751 91.6559L117.723 92.1664V95.0245L114.629 95.5574C114.566 95.775 114.536 95.9947 114.46 96.2089C114.257 96.7618 113.993 97.2723 113.686 97.7518L115.426 100.203L113.402 102.224L110.843 100.406C110.149 100.798 109.416 101.104 108.634 101.276L108.112 104.253H105.255L104.74 101.146C104.518 101.084 104.296 101.054 104.076 100.973C103.528 100.77 103.018 100.509 102.542 100.207L100.076 101.955L98.0657 99.9303L99.8839 97.3605C99.4922 96.6657 99.1858 95.934 99.0138 95.1517L96.0256 94.6332V91.787L99.1482 91.254C99.2093 91.0354 99.2403 90.8158 99.3202 90.5979C99.52 90.053 99.7798 89.5468 100.079 89.0705L98.3389 86.6041L100.356 84.5861L102.93 86.4043C103.619 86.0169 104.352 85.7105 105.13 85.5342L105.575 82.9525H100.194L99.0695 76.5068C98.8274 76.4302 98.5857 76.368 98.3447 76.2759C97.4778 75.9572 96.6717 75.5586 95.9017 75.1102L90.746 78.7433L86.3735 74.3579L90.1364 69.0334C89.5958 68.0022 89.1695 66.9167 88.8786 65.7843L82.6792 64.7177V59.6274L79.5581 60.1657C79.5082 60.3157 79.4959 60.4689 79.4392 60.6141C79.2351 61.167 78.9709 61.6732 78.6833 62.1639L81.0764 65.5549L78.1948 68.4275L74.6817 65.9499C74.0291 66.2874 73.3552 66.5638 72.6448 66.7513L71.9344 70.8174L67.8887 70.8206L67.1516 66.5783C67.0096 66.5284 66.8596 66.5172 66.7176 66.463C66.1615 66.2556 65.6478 65.9868 65.1538 65.6959L61.7516 68.0937L58.8822 65.2165L61.3707 61.691C61.0411 61.0461 60.7846 60.3678 60.597 59.6687L56.5032 58.967V54.8967L60.7224 54.1718C60.769 54.0219 60.8033 53.8766 60.8568 53.731C61.0609 53.1749 61.3298 52.6654 61.617 52.1737L59.2192 48.7826L62.0853 45.909L65.614 48.391C66.2665 48.0524 66.9448 47.7728 67.6587 47.5841L68.368 43.5149H72.4152L73.1527 47.7598C73.2994 47.8064 73.449 47.8176 73.5899 47.8707C74.1471 48.0781 74.6565 48.348 75.1516 48.6346L78.5426 46.2447L81.4232 49.1183L78.93 52.6391C79.2686 53.2873 79.5439 53.9623 79.7282 54.6726L83.7942 55.3707V58.3288L89.1187 57.4154C89.1953 57.1733 89.2564 56.9327 89.3485 56.6906C89.6672 55.8191 90.0701 55.0021 90.5271 54.2274L86.8687 49.0915L91.2685 44.7014L96.6043 48.4732C97.6366 47.9349 98.7221 47.51 99.8545 47.218L100.901 41.0154H107.103L108.227 47.4557C108.469 47.528 108.711 47.5945 108.952 47.6823C109.814 48.001 110.625 48.4039 111.39 48.8533L116.549 45.2202L120.914 49.6013L117.151 54.945C117.684 55.9683 118.109 57.0509 118.401 58.1753L124.613 59.2452V65.4488L118.168 66.5577C118.092 66.7998 118.03 67.0415 117.942 67.2792C117.62 68.1461 117.217 68.9554 116.763 69.7269L120.405 74.8813Z" fill="#1E3163"/>
</g>
<defs>
<clipPath id="clip0_91_165">
<rect width="111" height="111" fill="white" transform="translate(30 30)"/>
</clipPath>
</defs>
</svg>
