<svg width="170" height="170" viewBox="0 0 170 170" fill="none" xmlns="http://www.w3.org/2000/svg">
<path d="M30.6314 92.9468V50.3397C30.6314 47.3901 28.2514 45 25.3162 45C22.3801 45 20 47.3911 20 50.3397V120.101C20 123.051 22.3801 125.441 25.3152 125.441C28.2514 125.441 30.6305 123.05 30.6305 120.101V110.097L139.509 109.84V119.844C139.509 122.794 141.889 125.184 144.824 125.184C147.76 125.185 150.14 122.794 150.14 119.844V92.6893L30.6314 92.9468Z" fill="#1E3163"/>
<path d="M63.3936 73.0342C63.3936 80.2349 57.5838 86.0714 50.4162 86.0714C43.2486 86.0714 37.4388 80.2349 37.4388 73.0342C37.4388 65.8336 43.2486 59.997 50.4162 59.997C57.5838 59.997 63.3936 65.8336 63.3936 73.0342Z" fill="#1E3163"/>
<path d="M28.6314 92.9468V94.9511L30.6358 94.9468L148.14 94.6936V119.844C148.14 121.698 146.647 123.184 144.824 123.184H144.824C143.002 123.184 141.509 121.698 141.509 119.844V109.84V107.835L139.504 107.84L30.6258 108.097L28.6305 108.102V110.097V120.101C28.6305 121.954 27.1379 123.441 25.3152 123.441C23.4931 123.441 22 121.955 22 120.101V50.3397C22 48.4872 23.4931 47 25.3162 47C27.1384 47 28.6314 48.4862 28.6314 50.3397V92.9468ZM148.139 86.3724H71.3324V68.2503C71.3324 63.5172 75.1491 59.6963 79.838 59.6963H128.928C139.529 59.6963 148.138 68.3318 148.138 79.0039V79.0042L148.139 86.3724ZM61.3936 73.0342C61.3936 79.139 56.4706 84.0714 50.4162 84.0714C44.3618 84.0714 39.4388 79.139 39.4388 73.0342C39.4388 66.9295 44.3618 61.997 50.4162 61.997C56.4706 61.997 61.3936 66.9295 61.3936 73.0342Z" stroke="#1E3163" stroke-width="4"/>
</svg>
