<svg width="111" height="120" viewBox="0 0 111 120" fill="none" xmlns="http://www.w3.org/2000/svg">
<path d="M107.339 36.489C103.389 26.2655 92.0125 16.0428 77.9504 16.0428H77.6341C66.7317 16.1997 57.2524 20.6033 53.9339 22.3333C48.8772 21.0749 41.926 18.4014 40.3457 15.8847C37.5023 11.6379 36.712 6.13381 36.712 6.13381C36.712 5.66207 36.3957 5.03234 36.0805 4.71858C34.8163 2.98848 31.1827 0 26.5998 0C25.3357 0 24.2303 0.156879 23.1238 0.471744C15.2237 2.83044 14.276 10.2226 14.1171 10.5374C14.1171 11.0092 14.1172 11.3241 14.2748 11.7958L16.6443 19.9745C18.0661 24.5349 21.5421 33.1854 29.7584 38.2188C33.7085 40.7355 37.0271 42.4656 39.0802 43.5659C38.29 45.4529 37.6585 48.2845 37.6585 51.4298C37.8161 57.5635 36.8682 61.4955 35.1302 64.0122V64.169L34.9726 64.3259C34.815 64.4828 34.815 64.6408 34.6563 64.6408C33.2345 66.056 32.128 66.3709 29.5997 66.9995C27.5453 67.4712 24.8594 68.2578 21.0682 69.8299C11.7464 73.7618 6.37461 78.6371 3.05601 94.0499C-0.577734 110.406 -0.103731 111.979 0.212554 112.923C0.844079 114.653 4.95288 119.371 10.9561 120H11.9039C17.9083 120 21.6997 114.653 21.8583 114.338C22.1746 113.866 22.3322 113.395 22.3322 112.923C22.3322 112.923 22.6485 110.406 23.9127 104.43C24.8605 100.184 26.7561 96.5666 27.8627 95.4651C28.4942 95.78 29.4432 96.4086 30.2323 96.8804C34.4986 99.5539 41.4509 104.116 51.4042 104.272H52.9846C60.5684 104.272 86.6389 102.699 101.017 82.2542C103.229 79.1089 105.125 75.8056 106.548 72.5033C113.66 55.6764 108.919 40.7327 107.339 36.489ZM24.7039 6.60648C25.3354 6.4496 25.8105 6.29162 26.442 6.29162C27.7061 6.29162 28.8116 6.76337 29.6017 7.39309C28.4952 9.12319 27.2322 10.2235 25.8094 10.5383C24.0714 11.0101 22.1757 10.3815 20.7528 9.59485C21.5441 8.49448 22.6495 7.07834 24.7039 6.60648ZM33.078 32.8717C26.4419 28.7828 23.5973 21.2329 22.6496 18.2455L22.1757 16.6723C22.9659 16.8292 23.7562 16.9872 24.704 16.9872C25.6518 16.9872 26.442 16.8303 27.3899 16.6723C29.1279 16.2006 30.8659 15.4139 32.2876 13.9987C32.9191 15.7288 33.8681 17.6158 35.1311 19.504C38.9234 25.1659 51.2475 28.3112 53.7747 28.783C54.5649 28.9399 55.3551 28.783 56.1442 28.4682C56.3018 28.4682 66.4138 22.4914 77.7901 22.4914L77.9499 22.4925C89.0098 22.4925 98.3315 30.9848 101.334 39.0068C102.598 42.3101 106.232 53.6329 101.65 67.1593C101.493 67.0024 101.334 66.8444 101.019 66.5306C99.123 64.6437 96.4372 62.2839 91.6969 62.2839C86.7991 62.2839 84.2708 64.8006 82.3751 66.6876C80.637 68.2609 79.6892 69.2043 77.3184 69.2043C74.9489 69.2043 73.9999 68.2608 72.2618 66.6876C70.3662 64.8007 67.6804 62.2839 62.94 62.2839C58.0423 62.2839 55.514 64.8006 53.4594 66.6876C51.8789 68.2609 50.7735 69.2043 48.4028 69.2043C46.0332 69.2043 45.0842 68.2608 43.3462 66.6876C43.1886 66.5308 43.0299 66.3728 42.8723 66.2159C42.7147 66.059 42.556 65.901 42.3984 65.7442C42.082 65.4293 41.9244 65.2724 41.6081 65.1155C43.6625 60.8688 43.8201 55.6784 43.8201 51.5897C43.8201 47.343 45.7158 44.0407 45.7158 44.0407C46.1897 43.2541 46.3473 42.3106 46.0321 41.3672C45.7158 40.4237 45.0842 39.794 44.1364 39.3223C44.4538 39.1643 40.03 37.2754 33.078 32.8717Z" fill="#1E3163"/>
<path d="M82.5324 62.1253C82.5324 64.8186 80.3392 67.0006 77.6347 67.0006C74.9289 67.0006 72.7369 64.8185 72.7369 62.1253C72.7369 59.4331 74.929 57.25 77.6347 57.25C80.3393 57.25 82.5324 59.4332 82.5324 62.1253Z" fill="#1E3163"/>
<path d="M84.587 53.0032C84.587 54.6542 83.2424 55.9917 81.5847 55.9917C79.926 55.9917 78.5824 54.6544 78.5824 53.0032C78.5824 51.3532 79.9258 50.0157 81.5847 50.0157C83.2423 50.0157 84.587 51.3531 84.587 53.0032Z" fill="#1E3163"/>
<path d="M50.1424 82.4138C50.1424 84.0638 48.7989 85.4024 47.1401 85.4024C45.4825 85.4024 44.1378 84.0639 44.1378 82.4138C44.1378 80.7627 45.4824 79.4253 47.1401 79.4253C48.7988 79.4253 50.1424 80.7626 50.1424 82.4138Z" fill="#1E3163"/>
<path d="M51.4064 62.1252C51.4064 64.123 49.7797 65.7434 47.7726 65.7434C45.7657 65.7434 44.1378 64.123 44.1378 62.1252C44.1378 60.1274 45.7656 58.5081 47.7726 58.5081C49.7796 58.5081 51.4064 60.1274 51.4064 62.1252Z" fill="#1E3163"/>
<path d="M65.7843 69.3599C65.7843 71.3577 64.1564 72.977 62.1494 72.977C60.1424 72.977 58.5156 71.3577 58.5156 69.3599C58.5156 67.3621 60.1424 65.7428 62.1494 65.7428C64.1564 65.7428 65.7843 67.3621 65.7843 69.3599Z" fill="#1E3163"/>
<path d="M97.859 71.4045C97.859 74.6178 95.2414 77.2235 92.0121 77.2235C88.7841 77.2235 86.1663 74.618 86.1663 71.4045C86.1663 68.1902 88.7839 65.5845 92.0121 65.5845C95.2412 65.5845 97.859 68.19 97.859 71.4045Z" fill="#1E3163"/>
</svg>
