<svg width="255" height="259" viewBox="0 0 255 259" fill="none" xmlns="http://www.w3.org/2000/svg">
<path d="M255 129.348C255 200.785 197.916 258.696 127.5 258.696C57.0837 258.696 0 200.785 0 129.348C0 57.911 57.0837 0 127.5 0C197.916 0 255 57.911 255 129.348Z" fill="#D9D9D9"/>
<path fill-rule="evenodd" clip-rule="evenodd" d="M141.5 110.134C135.568 110.134 124.63 118.891 115.615 130.175C111.26 126.111 107.114 123.502 104.376 123.502C95.9385 123.502 74 154.098 74 170.286C74 176.97 84.224 176.97 101 176.97C101.74 176.97 102.481 176.97 103.22 176.969H127.5C131.863 177.037 136.579 176.97 141.502 176.97C163.87 176.97 182.002 176.97 182.002 170.286C182.001 149.779 152.792 110.134 141.5 110.134ZM86 105C92.6277 105 98 99.6282 98 93.0005C98 86.3728 92.6277 81.0005 86 81.0005C79.3723 81.0005 74 86.3728 74 93.0005C74 99.6282 79.3723 105 86 105Z" fill="#1E3163"/>
</svg>
