<svg width="195" height="120" viewBox="0 0 195 120" fill="none" xmlns="http://www.w3.org/2000/svg">
<path d="M15.8597 71.5257V7.96568C15.8597 3.56546 12.3092 0 7.93059 0C3.55054 0 0 3.56691 0 7.96568V112.034C0 116.435 3.55054 120 7.92914 120C12.3092 120 15.8583 116.433 15.8583 112.034V97.1104L178.28 96.7264V111.65C178.28 116.05 181.83 119.616 186.209 119.616C190.589 119.617 194.14 116.05 194.14 111.65V71.1416L15.8597 71.5257Z" fill="#1E3163"/>
<path d="M194.139 64.7017H73.5928V34.6841C73.5928 25.9885 80.6094 18.94 89.2647 18.94H162.497C179.972 18.94 194.137 33.171 194.137 50.7262L194.139 64.7017Z" fill="#1E3163"/>
<path d="M64.7335 41.8207C64.7335 52.5624 56.0665 61.2693 45.3741 61.2693C34.6817 61.2693 26.0147 52.5624 26.0147 41.8207C26.0147 31.079 34.6817 22.3721 45.3741 22.3721C56.0665 22.3721 64.7335 31.079 64.7335 41.8207Z" fill="#1E3163"/>
</svg>
