<svg width="101" height="120" viewBox="0 0 101 120" fill="none" xmlns="http://www.w3.org/2000/svg">
<path d="M55.3138 0C34.6549 0 15.6019 15.516 11.6449 32.6039C10.7664 36.4019 9.77071 46.3259 9.77071 46.3259L0.28203 70.2799C0.0914103 70.7068 0 71.2002 0 71.7053C0 73.7283 1.6332 75.3701 3.66479 75.3701H9.77028V88.0961C9.77028 98.0226 17.7996 106.062 27.7153 106.062H34.8492V120H61.3622V113.779H72.1612V120H83.4362L83.4358 81.3501C94.0318 73.0185 100.847 60.0681 100.847 45.5461C100.847 20.3872 80.4718 0.0002 55.3138 0.0002L55.3138 0ZM20.9749 55.3999C18.1515 55.3999 15.8593 53.1116 15.8593 50.2878C15.8593 47.4726 18.1527 45.189 20.9749 45.189C23.7733 45.189 26.069 47.4726 26.069 50.2878C26.0698 53.1128 23.7729 55.3999 20.9749 55.3999ZM61.3618 88.8539H72.1608V94.694H61.3618V88.8539ZM61.3618 80.5441H72.1608V86.3796H61.3618V80.5441ZM61.3618 97.156H72.1608V103.005H61.3618V97.156ZM61.3618 105.469H72.1608V111.317H61.3618V105.469ZM61.3618 72.2356H72.2268C72.2065 72.6618 72.1608 73.0852 72.1608 73.5243V78.0759H61.3618L61.3618 72.2356ZM91.2578 38.5736C91.2578 41.683 90.0387 44.5052 88.0574 46.6076C87.7179 51.0428 84.9074 54.7869 80.9894 56.4752V56.5158C76.2062 59.3021 73.3453 64.0564 72.4753 69.7618L68.0519 69.7622V56.5282C68.0808 52.4024 69.3781 49.7614 72.0984 48.1317C73.0933 47.5595 73.9968 46.9051 74.7683 46.1794C76.7867 46.9041 78.5734 48.3274 79.7085 50.3493C79.9448 50.7478 80.3687 50.9708 80.7862 50.9708C80.9889 50.9708 81.2014 50.9204 81.3909 50.8087C81.9967 50.4775 82.2128 49.7228 81.8721 49.1263H81.8635C80.5905 46.863 78.6545 45.1927 76.4577 44.1978C77.5846 42.465 78.2107 40.4009 78.1834 37.9216C78.1834 37.9095 78.2002 37.8962 78.2002 37.8794C78.2002 36.7599 78.0334 35.67 77.7358 34.6466C80.317 34.1533 82.5932 32.8443 84.2674 30.9974C84.7318 30.4873 84.6982 29.7036 84.1857 29.2478C83.6744 28.7881 82.9041 28.8291 82.4482 29.326C80.9889 30.9135 79.021 31.9994 76.7819 32.2983C74.9831 28.9659 71.6374 26.5983 67.7159 26.1674C67.9776 24.0529 68.9304 22.1678 70.3643 20.7338C70.8369 20.2525 70.8369 19.4678 70.3643 18.9912C69.8842 18.5064 69.0885 18.5064 68.6065 18.9912C66.7706 20.8283 65.5428 23.2822 65.2358 26.0146C60.6303 25.4337 57.0831 21.5255 57.0745 16.765C57.0745 16.0892 56.5139 15.5255 55.8507 15.5255C55.1499 15.5255 54.6027 16.0896 54.6027 16.765C54.6027 17.5689 54.6808 18.3357 54.8343 19.0908C53.0894 20.6006 50.9175 21.3635 48.7417 21.3635C47.6679 21.3635 46.5901 21.1729 45.5737 20.8041C45.5737 20.8041 45.557 20.8006 45.5448 20.7955C44.2932 20.3432 43.1448 19.6256 42.1499 18.6307C41.6734 18.1495 40.8852 18.1495 40.4004 18.6307C39.9156 19.1108 39.9156 19.8909 40.4004 20.3768C41.4203 21.392 42.5687 22.1791 43.7913 22.7479C43.5464 25.8272 41.7561 28.4768 39.2531 29.9647C37.8058 27.7674 35.6293 26.0264 32.9554 25.1768C32.2882 24.9694 31.5956 25.3291 31.3847 25.9807C31.2022 26.6311 31.5347 27.3237 32.1936 27.5276C34.1784 28.1577 35.7745 29.3803 36.9229 30.9393C36.1515 31.1467 35.3604 31.2584 34.5182 31.2584H34.5061H34.3694C31.194 31.2584 28.2756 32.5232 26.153 34.592C25.6515 35.0686 25.6394 35.8522 26.1315 36.3381C26.3679 36.5866 26.6921 36.7112 27.028 36.7112C27.31 36.7112 27.621 36.5948 27.8608 36.362C29.5432 34.7206 31.8401 33.7304 34.3682 33.7304H34.5159C40.469 33.7304 45.4139 29.2976 46.1889 23.5514C47.0349 23.7338 47.8795 23.8334 48.7389 23.8334C51.1557 23.8334 53.5927 23.0834 55.6447 21.599C56.3947 23.3115 57.5802 24.808 59.0189 25.9681C57.5513 27.7751 56.6896 29.922 56.4619 32.1193C55.8428 32.0197 55.1924 31.9658 54.542 31.9658C52.676 31.9658 50.7823 32.4099 49.021 33.3517C48.4163 33.6708 48.1881 34.4208 48.5061 35.0271C48.7303 35.4376 49.1651 35.6775 49.6088 35.6775C49.8115 35.6775 49.994 35.6318 50.1729 35.5275C51.5901 34.7861 53.0745 34.433 54.542 34.433C55.197 34.433 55.8428 34.5037 56.4619 34.6357C56.7306 37.1388 57.8131 39.5892 59.6744 41.5369C59.9228 41.7935 60.2431 41.9185 60.5611 41.9185C60.8634 41.9185 61.179 41.8068 61.424 41.5791C61.929 41.1025 61.9423 40.3275 61.4611 39.8342H61.4513C59.7978 38.0846 58.924 35.8623 58.8654 33.6158C58.8654 33.5822 58.874 33.5584 58.8654 33.5197V33.383C58.8654 31.2014 59.6201 29.0451 61.1119 27.3123C62.6838 28.0959 64.4744 28.5518 66.3689 28.5518C66.3689 28.5518 66.3775 28.5553 66.3892 28.5553H66.4107C71.5419 28.5721 75.6962 32.7194 75.7166 37.8506C74.7424 37.5939 73.74 37.4607 72.7119 37.4607C71.2396 37.4607 69.7478 37.7307 68.3092 38.3236C67.6709 38.5842 67.3686 39.3018 67.6264 39.9314C67.8869 40.5615 68.5959 40.8674 69.2295 40.6107C70.3826 40.1498 71.5553 39.9268 72.7119 39.9268C73.6443 39.9268 74.5681 40.0682 75.4357 40.3373C75.1333 41.7221 74.5404 42.8334 73.6189 43.8197C73.5482 43.8822 73.4833 43.9517 73.4294 44.0345C72.724 44.7271 71.879 45.3654 70.8337 46.0001C67.2575 48.0892 65.5403 51.8778 65.5778 56.5231V69.7551H61.3575L61.3579 57.1751C61.3579 52.5528 58.4599 48.1704 54.813 46.6111C53.072 45.9354 51.2564 44.8041 49.9338 43.3244C48.0475 44.6049 45.7842 45.3596 43.3506 45.3596C40.91 45.3596 38.6467 44.6182 36.7721 43.3448C34.9073 44.5714 32.6561 45.2889 30.2479 45.2889C23.6276 45.2889 18.2759 39.9248 18.2759 33.313C18.2759 28.37 21.265 24.1306 25.5431 22.307C26.6997 17.0332 31.3716 13.0875 36.9921 13.0875C37.2909 13.0875 37.5643 13.1129 37.8417 13.1281C39.9608 10.032 43.5214 8.00042 47.5546 8.00042C49.5526 8.00042 51.4269 8.49847 53.0722 9.38522C54.9296 8.15042 57.1511 7.43292 59.5436 7.43292C62.6155 7.43292 65.4139 8.63062 67.5104 10.5743C68.389 10.363 69.2971 10.2384 70.2463 10.2384C74.9924 10.2384 79.0963 13.0943 80.9283 17.1864C85.7451 18.6458 89.2525 23.1145 89.2525 28.4053C89.2525 29.4662 89.1111 30.4897 88.8506 31.4643C90.3528 33.4381 91.2567 35.9006 91.2567 38.5741L91.2578 38.5736Z" fill="#1E3163"/>
</svg>
