<svg width="100" height="120" viewBox="0 0 100 120" fill="none" xmlns="http://www.w3.org/2000/svg">
<path d="M62.4321 86.1501C55.9837 82.6727 36.2286 82.986 22.5262 83.6184C8.82354 84.2508 8.41213 95.6395 11.2401 103.234C14.0679 110.825 25.3481 120 35.423 120C45.498 120 54.7753 115.885 55.9795 110.825C57.186 105.764 72.5929 94.8807 69.687 91.843C67.2669 89.3104 68.8823 89.6285 62.4327 86.1501H62.4321ZM74.6251 71.1128C73.2148 74.9873 69.5978 80.9557 66.8718 84.0241C70.0762 84.3692 73.8972 87.3677 74.6251 89.3739C78.3857 84.2084 83.9664 76.4516 84.2616 74.0659C84.6503 70.9092 76.0344 67.238 74.6251 71.1128ZM86.4327 52.2083C87.7648 61.0736 75.4525 65.2627 76.5617 67.3499C80.7501 66.3621 84.764 68.7022 86.248 71.8142C87.3525 60.5167 95.4021 59.4405 97.3954 53.0099C97.975 50.4142 86.6166 49.5326 86.4327 52.2083ZM98.9527 39.6524C96.2968 38.4312 94.6591 41.9887 92.7498 44.8701C91.2885 47.0753 89.8118 46.2131 88.0401 49.3418C91.2446 47.4975 96.9594 47.6193 98.7149 50.7174C98.3297 46.5554 101.608 40.8725 98.9531 39.6522L98.9527 39.6524ZM58.5583 81.4719C58.1744 73.5347 59.8288 67.0222 63.0286 58.4712C65.6158 51.5532 49.1494 49.9368 49.9992 57.4462C50.9438 65.8142 50.8264 69.7195 47.7664 80.5306C50.932 80.0172 57.582 81.0451 58.5583 81.4719ZM50.0477 50.3835C52.0933 48.7837 60.6585 48.7317 63.6248 51.1731C63.6248 46.6566 61.0258 43.7623 61.0258 39.9761C61.0258 36.1898 63.6248 35.0643 63.6248 31.3898C63.6248 26.1507 52.4928 26.6947 52.4928 31.1628C52.4928 35.2124 53.6092 35.9053 53.4208 40.1241C53.23 44.342 49.864 47.4716 50.0479 50.3838L50.0477 50.3835ZM64.1248 27.0415C64.747 24.2522 61.1903 24.3917 63.9482 17.139C66.0139 11.699 54.5335 11.0899 55.6843 16.5112C57.462 24.8809 53.8165 23.9035 53.9954 26.5542C56.6584 25.0894 62.7025 25.9255 64.1248 27.0415ZM63.9458 11.979C64.3915 9.95608 61.7237 9.60824 63.6792 5.1439C65.5221 0.937184 56.9865 0.789325 58.0806 4.72537C59.5905 10.1654 57.1917 9.53757 57.104 11.699C58.0806 10.5829 63.2334 11.42 63.9458 11.979ZM32.3196 57.5319C33.9421 65.8346 34.6473 68.6201 32.4855 79.5607C35.5966 78.8846 42.3162 79.5737 43.3345 79.9523C42.2963 72.0496 42.9114 66.589 45.4061 57.892C47.4149 50.8607 30.8512 50.0794 32.3196 57.5319ZM31.9036 50.6456C33.948 49.0459 42.6955 48.6404 45.6609 51.08C45.6609 46.5654 42.8782 44.0235 42.8782 40.2363C42.8782 36.4481 45.4772 35.3245 45.4772 31.65C45.4772 26.4099 34.3461 26.9549 34.3461 31.423C34.3461 35.4726 35.4626 36.1655 35.2741 40.3843C35.0857 44.6041 31.7198 47.7337 31.9037 50.6459L31.9036 50.6456ZM45.4771 27.0423C46.0993 24.2529 42.545 24.3925 45.3005 17.1398C47.3662 11.6997 35.8857 11.0906 37.0365 16.512C38.8142 24.8816 35.1687 23.9042 35.3477 26.5549C37.507 25.4733 44.0547 25.9262 45.4771 27.0423ZM44.632 11.7185C45.0777 9.6956 42.5438 7.73036 44.4993 3.26602C46.3422 -0.939743 37.8066 -1.08855 38.9007 2.84842C40.4106 8.28848 37.8779 9.27802 37.789 11.4395C38.7668 10.3234 43.9209 11.1595 44.632 11.7185ZM17.535 59.7024C20.3627 74.9881 19.5284 78.78 19.6943 81.2596C19.6943 81.2596 24.6934 79.9528 28.1882 80.868C28.1882 75.641 26.5776 74.4384 28.8543 59.4411C29.8309 53.0217 16.2622 52.8236 17.535 59.7024ZM25.0262 35.664C26.4211 31.2918 15.6681 31.0556 17.3666 36.5801C18.6939 40.8909 18.6999 47.1624 17.0335 52.9122C17.3666 51.6055 25.1874 50.9544 27.5196 52.3895C25.1872 48.2071 23.1939 41.4127 25.0262 35.664ZM17.0334 31.6135C19.028 30.0445 23.3538 30.0445 25.1873 31.4833C25.5203 28.6113 21.6945 28.4811 24.859 20.2472C26.6414 15.6062 15.2831 16.3903 16.8663 20.117C20.0271 27.5659 16.3674 29.1294 17.0334 31.6135ZM24.3599 16.0712C23.861 13.9832 22.1934 13.5869 23.6927 9.14585C25.0532 5.11771 16.5012 4.96604 17.8665 9.40721C19.1951 13.718 18.0324 13.9794 17.2005 16.0711C18.3667 14.8983 23.5268 15.156 24.3599 16.0712ZM16.0343 82.1767C12.8687 76.4271 11.7358 68.4554 11.8687 65.4522C12.2017 58.0024 -1.11704 60.4867 1.21548 66.4976C3.54785 72.5086 8.87507 76.427 8.87507 84.7874C9.87416 83.2174 13.3739 81.5266 16.0347 82.1766L16.0343 82.1767ZM10.534 59.1798C7.36839 53.6914 8.0393 46.5084 9.04075 42.5901C10.041 38.6717 -0.119135 37.2328 0.71521 43.1127C1.17031 46.3299 1.54719 55.3915 0.0479758 59.0477C1.38244 56.6946 8.04194 57.8758 10.534 59.1798ZM0.882353 28.0889C1.95493 30.2904 1.21539 33.4461 1.21539 36.8409C2.71579 34.6218 6.20841 35.6653 7.37467 36.4494C7.70771 34.2265 6.04139 32.0084 7.37467 27.5662C8.70796 23.1233 -1.28421 23.6469 0.882353 28.0889ZM0.216304 22.862C0.882353 21.1655 5.04336 21.9458 6.37558 22.7318C4.87519 19.8598 5.0423 20.1174 5.87665 16.8519C6.70862 13.5864 1.38272 13.3252 0.383627 15.0215C-0.617829 16.7161 0.716449 19.2003 0.216304 22.862Z" fill="#1E3163"/>
</svg>
