<svg width="80" height="120" viewBox="0 0 80 120" fill="none" xmlns="http://www.w3.org/2000/svg">
<path d="M39.6942 0C50.6113 0 60.5366 4.46348 67.7292 11.6592C74.9216 18.8516 79.3884 28.7734 79.3884 39.6942V80.3058C79.3884 91.2229 74.9249 101.148 67.7292 108.341C60.5368 115.533 50.615 120 39.6942 120C28.7771 120 18.8518 115.537 11.6592 108.341C4.46675 101.148 0 91.2266 0 80.3058V39.6942C0 28.7771 4.46347 18.8518 11.6592 11.6592C18.8516 4.46675 28.7769 0 39.6942 0ZM45.3841 45.8111C45.9717 44.3788 47.6099 43.6955 49.0429 44.2831C50.4752 44.8707 51.1585 46.5089 50.5709 47.9419C49.6784 50.1131 48.1572 51.957 46.2329 53.2459C44.3556 54.5057 42.1042 55.2402 39.694 55.2402C37.2845 55.2402 35.0366 54.5057 33.1552 53.2459C31.23 51.9562 29.7064 50.1087 28.8172 47.9419C28.2296 46.5096 28.9128 44.875 30.3452 44.2831C31.7775 43.6955 33.4165 44.3788 34.004 45.8111C34.4703 46.9462 35.2672 47.9121 36.2775 48.5877C37.2435 49.2342 38.4187 49.616 39.6939 49.616C40.9682 49.616 42.1443 49.2376 43.1103 48.5877C44.1164 47.9121 44.9175 46.9461 45.3837 45.8111H45.3841ZM52.1101 34.2219C53.6637 34.2219 54.9202 35.4817 54.9202 37.0352C54.9202 38.5888 53.6604 39.8453 52.1101 39.8453H49.4172C47.8636 39.8453 46.6039 38.5855 46.6039 37.0352C46.6039 35.4816 47.8637 34.2219 49.4172 34.2219H52.1101ZM27.2739 39.8461C25.7203 39.8461 24.4606 38.5864 24.4606 37.0361C24.4606 35.4825 25.7203 34.2227 27.2739 34.2227H29.9668C31.5204 34.2227 32.7801 35.4825 32.7801 37.0361C32.7801 38.5897 31.5203 39.8461 29.9668 39.8461H27.2739ZM5.6234 70.2141L64.1204 103.986C70.0786 97.8446 73.7553 89.484 73.7553 80.3091V39.6975C73.7553 30.3306 69.924 21.8154 63.7454 15.6418C57.5704 9.46679 49.0525 5.63193 39.6898 5.63193C30.3229 5.63193 21.8077 9.46679 15.6342 15.6418C9.45914 21.8169 5.62427 30.3348 5.62427 39.7018V70.2185L5.6234 70.2141ZM59.6469 107.872L5.6234 76.6817V80.3073C5.6234 89.6742 9.45477 98.1894 15.6333 104.363C21.8084 110.538 30.3262 114.373 39.6889 114.373C47.1238 114.373 54.0257 111.956 59.6456 107.872L59.6469 107.872ZM39.6903 12.6551C47.1584 12.6551 53.9168 15.6821 58.8099 20.5752C63.703 25.4683 66.73 32.2267 66.73 39.6948C66.73 47.1588 63.703 53.9214 58.8099 58.8145C53.9168 63.7076 47.1584 66.7346 39.6903 66.7346C32.2263 66.7346 25.4637 63.7076 20.5706 58.8145C15.6775 53.9214 12.6505 47.163 12.6505 39.6948C12.6505 32.2267 15.6775 25.4683 20.5706 20.5752C25.4637 15.6821 32.2221 12.6551 39.6903 12.6551ZM54.8316 24.5526C50.9565 20.6775 45.6005 18.2818 39.6903 18.2818C33.7765 18.2818 28.424 20.6766 24.5489 24.5526C20.6738 28.4277 18.2781 33.7802 18.2781 39.694C18.2781 45.6077 20.6729 50.9602 24.5489 54.8353C28.424 58.7104 33.78 61.1061 39.6903 61.1061C45.604 61.1061 50.9565 58.7113 54.8316 54.8353C58.7067 50.9602 61.1024 45.6077 61.1024 39.694C61.1024 33.7802 58.7041 28.4242 54.8316 24.5526Z" fill="#1E3163"/>
</svg>
