<svg width="101" height="120" viewBox="0 0 101 120" fill="none" xmlns="http://www.w3.org/2000/svg">
<path d="M55.3392 0C34.6792 0 15.6252 15.509 11.6652 32.6C10.7688 36.3992 9.78714 46.322 9.78714 46.322L0.273441 70.277C0.0910205 70.7075 0 71.1938 0 71.7036C0 73.7231 1.6547 75.3731 3.6828 75.3731H9.7871V88.0991C9.7871 98.0229 17.8269 106.061 27.7381 106.061H34.8733V120H83.4563V81.3531C94.0523 73.0179 100.856 60.0701 100.856 45.5421C100.856 20.3871 80.4723 0.0001 55.3393 0.0001L55.3392 0ZM20.9702 55.4C18.185 55.4 15.9073 53.1234 15.9073 50.307C15.9073 47.5074 18.1839 45.2347 20.9702 45.2347C23.7819 45.2347 26.0702 47.5074 26.0702 50.307C26.0702 53.125 23.7819 55.4 20.9702 55.4ZM88.1642 48.5203L83.429 53.2566L77.6532 49.1789C76.5407 49.7598 75.372 50.2203 74.1528 50.5312L73.0872 56.8144H75.2927L75.8818 60.1734C76.1134 60.2359 76.3463 60.2695 76.5744 60.3523C77.1674 60.5718 77.7142 60.8539 78.2244 61.1781L80.8873 59.3074L83.0713 61.489L81.1104 64.2718C81.5338 65.0183 81.8651 65.814 82.051 66.655L85.2647 67.2069V70.2967L81.919 70.8729C81.8518 71.1081 81.8194 71.3456 81.7366 71.5772C81.517 72.1749 81.2315 72.7268 80.9003 73.2452L82.7808 75.8948L80.5933 78.08L77.8261 76.1144C77.0761 76.5379 76.2839 76.8691 75.4382 77.055L74.8741 80.2734H71.7854L71.2288 76.9144C70.9889 76.8472 70.7487 76.8148 70.5112 76.7273C69.9182 76.5078 69.3674 76.2258 68.8526 75.8992L66.1862 77.789L64.0132 75.6003L65.9788 72.8222C65.5553 72.071 65.2241 71.28 65.0382 70.4343L61.8077 69.8737V66.7968L65.1835 66.2206C65.2495 65.9843 65.2831 65.7468 65.3694 65.5112C65.5854 64.9221 65.8663 64.3749 66.1901 63.86L64.3085 61.1936L66.489 59.012L69.2718 60.9776C70.0171 60.5589 70.8089 60.2276 71.6503 60.037L72.1315 57.246H66.3139L65.0983 50.2776C64.8366 50.1948 64.5753 50.1276 64.3148 50.028C63.3776 49.6834 62.5061 49.2526 61.6737 48.7678L56.1 52.6955L51.3729 47.9545L55.4409 42.1983C54.8566 41.0835 54.3957 39.91 54.0812 38.6858L47.3792 37.5327V32.0296L44.005 32.6116C43.951 32.7737 43.9378 32.9393 43.8764 33.0964C43.6557 33.694 43.3702 34.2413 43.0592 34.7718L45.6463 38.4378L42.5311 41.5433L38.7331 38.8648C38.0277 39.2296 37.2991 39.5284 36.5311 39.7312L35.7632 44.1269L31.3894 44.1304L30.5925 39.5441C30.439 39.4902 30.2769 39.4781 30.1234 39.4195C29.5222 39.1953 28.9668 38.9046 28.4328 38.5902L24.7547 41.1824L21.6527 38.0719L24.3429 34.2606C23.9866 33.5633 23.7093 32.8301 23.5065 32.0743L19.0807 31.3157V26.9153L23.642 26.1317C23.6924 25.9696 23.7295 25.8126 23.7873 25.6551C24.008 25.054 24.2987 24.5031 24.6092 23.9715L22.017 20.3055L25.1154 17.1989L28.9302 19.8821C29.6357 19.5161 30.3689 19.2138 31.1407 19.0099L31.9075 14.6107H36.2829L37.0802 19.1998C37.2388 19.2502 37.4005 19.2623 37.5528 19.3197C38.1552 19.5439 38.7059 19.8357 39.2411 20.1455L42.9071 17.5619L46.0212 20.6685L43.3259 24.4747C43.692 25.1755 43.9896 25.9052 44.1888 26.6731L48.5845 27.4278V30.6258L54.3407 29.6383C54.4235 29.3765 54.4896 29.1164 54.5892 28.8547C54.9337 27.9125 55.3693 27.0293 55.8634 26.1918L51.9083 20.6395L56.6649 15.8934L62.4333 19.9711C63.5493 19.389 64.7228 18.9297 65.947 18.6141L67.0786 11.9086H73.7829L74.9985 18.8711C75.2602 18.9492 75.5215 19.0211 75.7821 19.116C76.7145 19.4605 77.5907 19.8961 78.4184 20.382L83.995 16.4543L88.7145 21.1906L84.6465 26.9676C85.2226 28.0738 85.682 29.2442 85.9977 30.4598L92.7129 31.6164V38.323L85.7457 39.5218C85.6628 39.7835 85.5957 40.0448 85.5007 40.3019C85.1527 41.239 84.7171 42.114 84.2265 42.948L88.1642 48.5203Z" fill="#1E3163"/>
</svg>
