<svg width="196" height="109" viewBox="0 0 196 109" fill="none" xmlns="http://www.w3.org/2000/svg">
<path d="M118.537 15.1622L114.058 21.4054L90.7683 8.91892L71.0618 21.4054V44.5946L91.664 57.0811L114.058 43.7027L118.537 49.9459L90.7683 66L63 49.9459V15.1622L90.7683 0L118.537 15.1622Z" fill="#B6715B"/>
<path d="M104.205 23.1892L100.622 28.5405L91.664 23.1892L85.3938 28.5405V36.5676L91.664 41.027L100.622 36.5676L103.309 42.8108L91.664 49.0541L78.2278 41.027V23.1892L91.664 15.1622L104.205 23.1892Z" fill="#B6715B"/>
<path d="M11.8454 109C9.4825 109 7.39946 108.537 5.59623 107.612C3.81373 106.686 2.43539 105.361 1.46124 103.636C0.487076 101.891 0 99.8505 0 97.5158C0 95.1811 0.487076 93.1514 1.46124 91.4266C2.43539 89.6808 3.81373 88.3452 5.59623 87.4198C7.39946 86.4733 9.4825 86 11.8454 86C13.3999 86 14.7886 86.1578 16.0114 86.4733C17.2343 86.7887 18.3639 87.283 19.4003 87.9561V93.2565C18.4883 92.5203 17.452 91.984 16.2913 91.6475C15.1513 91.3109 13.8351 91.1427 12.3428 91.1427C10.2079 91.1427 8.56016 91.7106 7.39946 92.8464C6.23876 93.9611 5.65841 95.5176 5.65841 97.5158C5.65841 99.5139 6.23876 101.081 7.39946 102.217C8.58089 103.353 10.2287 103.92 12.3428 103.92C13.8351 103.92 15.172 103.742 16.3534 103.384C17.5349 103.027 18.6334 102.459 19.649 101.68V106.949C17.6799 108.316 15.0787 109 11.8454 109Z" fill="#F1D3BB"/>
<path d="M26.986 109C25.1206 109 23.6076 108.548 22.4469 107.643C21.3069 106.718 20.7369 105.435 20.7369 103.794C20.7369 102.091 21.2862 100.786 22.3847 99.882C23.5039 98.9566 25.0999 98.4938 27.1726 98.4938C27.9809 98.4938 28.7893 98.5885 29.5976 98.7778C30.4059 98.946 31.1003 99.1774 31.6806 99.4719V99.1564C31.6806 97.5368 30.3749 96.727 27.7633 96.727C25.9393 96.727 24.2708 97.0846 22.7578 97.7997V93.9822C23.421 93.6667 24.2915 93.4143 25.3693 93.225C26.4471 93.0146 27.5664 92.9095 28.7271 92.9095C31.5045 92.9095 33.5979 93.4774 35.0073 94.6132C36.4374 95.7279 37.1525 97.2949 37.1525 99.3141V108.527H32.0226V107.233C31.463 107.78 30.7583 108.211 29.9085 108.527C29.0587 108.842 28.0845 109 26.986 109ZM28.6027 105.593C29.2453 105.593 29.8463 105.466 30.406 105.214C30.9656 104.941 31.3905 104.594 31.6806 104.173V102.848C30.7894 102.238 29.7738 101.933 28.6338 101.933C27.9084 101.933 27.3487 102.091 26.9549 102.406C26.5611 102.722 26.3642 103.184 26.3642 103.794C26.3642 104.362 26.5508 104.804 26.9239 105.119C27.3177 105.435 27.8773 105.593 28.6027 105.593Z" fill="#F1D3BB"/>
<path d="M39.7881 93.3827H45.0735V95.2757C45.6538 94.6027 46.4725 94.0873 47.5296 93.7298C48.5867 93.3512 49.7577 93.1619 51.0428 93.1619V97.4211C49.6748 97.4211 48.4623 97.6209 47.4052 98.0206C46.3689 98.4202 45.6538 99.0197 45.26 99.8189V108.527H39.7881V93.3827Z" fill="#F1D3BB"/>
<path d="M61.3681 109C58.4457 109 56.145 108.306 54.4661 106.918C52.808 105.529 51.9789 103.563 51.9789 101.018C51.9789 98.5149 52.7147 96.5377 54.1863 95.0864C55.6786 93.6351 57.8238 92.9095 60.622 92.9095C62.4045 92.9095 63.9279 93.2565 65.1922 93.9506C66.4773 94.6237 67.4411 95.5597 68.0836 96.7586C68.7469 97.9364 69.0785 99.2721 69.0785 100.765V102.816H57.1709C57.3782 103.658 57.8964 104.267 58.7255 104.646C59.5545 105.025 60.6841 105.214 62.1143 105.214C63.0884 105.214 64.0833 105.13 65.099 104.962C66.1353 104.793 67.0265 104.562 67.7727 104.267V107.927C67.0058 108.243 66.042 108.495 64.8813 108.685C63.7413 108.895 62.5703 109 61.3681 109ZM63.9175 99.3457C63.8346 98.5254 63.503 97.8839 62.9226 97.4211C62.3423 96.9584 61.5443 96.727 60.5287 96.727C59.5338 96.727 58.7462 96.9689 58.1658 97.4527C57.5855 97.9154 57.2539 98.5464 57.1709 99.3457H63.9175Z" fill="#F1D3BB"/>
<path d="M82.4662 109C80.1034 109 78.0203 108.537 76.2171 107.612C74.4346 106.686 73.0563 105.361 72.0821 103.636C71.1079 101.891 70.6208 99.8505 70.6208 97.5158C70.6208 95.1811 71.1079 93.1514 72.0821 91.4266C73.0563 89.6808 74.4346 88.3452 76.2171 87.4198C78.0203 86.4733 80.1034 86 82.4662 86C84.0207 86 85.4094 86.1578 86.6323 86.4733C87.8552 86.7887 88.9848 87.283 90.0211 87.9561V93.2565C89.1092 92.5203 88.0728 91.984 86.9121 91.6475C85.7721 91.3109 84.456 91.1427 82.9637 91.1427C80.8288 91.1427 79.181 91.7106 78.0203 92.8464C76.8596 93.9611 76.2793 95.5176 76.2793 97.5158C76.2793 99.5139 76.8596 101.081 78.0203 102.217C79.2017 103.353 80.8495 103.92 82.9637 103.92C84.456 103.92 85.7929 103.742 86.9743 103.384C88.1557 103.027 89.2542 102.459 90.2698 101.68V106.949C88.3008 108.316 85.6996 109 82.4662 109Z" fill="#F1D3BB"/>
<path d="M100.226 109C98.3818 109 96.7651 108.663 95.3764 107.99C93.9877 107.296 92.9099 106.35 92.143 105.151C91.3969 103.931 91.0238 102.532 91.0238 100.955C91.0238 99.3772 91.3969 97.989 92.143 96.7901C92.9099 95.5702 93.9877 94.6237 95.3764 93.9506C96.7651 93.2565 98.3818 92.9095 100.226 92.9095C102.071 92.9095 103.688 93.2565 105.077 93.9506C106.465 94.6237 107.533 95.5702 108.279 96.7901C109.046 97.989 109.429 99.3772 109.429 100.955C109.429 102.532 109.046 103.931 108.279 105.151C107.533 106.35 106.465 107.296 105.077 107.99C103.688 108.663 102.071 109 100.226 109ZM100.226 104.678C101.325 104.678 102.196 104.352 102.838 103.7C103.501 103.027 103.833 102.112 103.833 100.955C103.833 99.7979 103.501 98.8935 102.838 98.2414C102.196 97.5684 101.325 97.2318 100.226 97.2318C99.128 97.2318 98.2471 97.5684 97.5838 98.2414C96.9413 98.8935 96.62 99.7979 96.62 100.955C96.62 102.112 96.9413 103.027 97.5838 103.7C98.2471 104.352 99.128 104.678 100.226 104.678Z" fill="#F1D3BB"/>
<path d="M111.593 93.3827H116.878V95.0549C117.521 94.3397 118.298 93.8034 119.21 93.4458C120.122 93.0882 121.076 92.9095 122.07 92.9095C124.164 92.9095 125.708 93.4669 126.703 94.5816C127.719 95.6754 128.226 97.1687 128.226 99.0617V108.527H122.754V99.7874C122.754 98.0837 121.988 97.2318 120.454 97.2318C119.749 97.2318 119.107 97.4001 118.526 97.7366C117.946 98.0521 117.459 98.5464 117.065 99.2195V108.527H111.593V93.3827Z" fill="#F1D3BB"/>
<path d="M130.873 93.3827H136.158V95.0549C136.801 94.3397 137.578 93.8034 138.49 93.4458C139.402 93.0882 140.355 92.9095 141.35 92.9095C143.443 92.9095 144.988 93.4669 145.982 94.5816C146.998 95.6754 147.506 97.1687 147.506 99.0617V108.527H142.034V99.7874C142.034 98.0837 141.267 97.2318 139.733 97.2318C139.029 97.2318 138.386 97.4001 137.806 97.7366C137.225 98.0521 136.738 98.5464 136.345 99.2195V108.527H130.873V93.3827Z" fill="#F1D3BB"/>
<path d="M158.92 109C155.997 109 153.696 108.306 152.018 106.918C150.359 105.529 149.53 103.563 149.53 101.018C149.53 98.5149 150.266 96.5377 151.738 95.0864C153.23 93.6351 155.375 92.9095 158.173 92.9095C159.956 92.9095 161.479 93.2565 162.744 93.9506C164.029 94.6237 164.993 95.5597 165.635 96.7586C166.298 97.9364 166.63 99.2721 166.63 100.765V102.816H154.722C154.93 103.658 155.448 104.267 156.277 104.646C157.106 105.025 158.236 105.214 159.666 105.214C160.64 105.214 161.635 105.13 162.65 104.962C163.687 104.793 164.578 104.562 165.324 104.267V107.927C164.557 108.243 163.594 108.495 162.433 108.685C161.293 108.895 160.122 109 158.92 109ZM161.469 99.3457C161.386 98.5254 161.054 97.8839 160.474 97.4211C159.894 96.9584 159.096 96.727 158.08 96.727C157.085 96.727 156.298 96.9689 155.717 97.4527C155.137 97.9154 154.805 98.5464 154.722 99.3457H161.469Z" fill="#F1D3BB"/>
<path d="M177.064 109C174.328 109 172.162 108.306 170.566 106.918C168.97 105.529 168.172 103.552 168.172 100.986C168.172 98.4202 168.97 96.4325 170.566 95.0233C172.183 93.6141 174.359 92.9095 177.095 92.9095C178.318 92.9095 179.458 93.0357 180.515 93.2881C181.593 93.5194 182.484 93.856 183.189 94.2977V98.62C181.925 97.6946 180.256 97.2318 178.183 97.2318C176.857 97.2318 175.789 97.5473 174.981 98.1783C174.193 98.7883 173.8 99.7243 173.8 100.986C173.8 102.269 174.193 103.216 174.981 103.826C175.769 104.415 176.826 104.709 178.152 104.709C180.163 104.709 181.904 104.225 183.375 103.258V107.549C181.8 108.516 179.696 109 177.064 109Z" fill="#F1D3BB"/>
<path d="M192.02 109C190.176 109 188.777 108.485 187.823 107.454C186.891 106.402 186.424 104.972 186.424 103.163V97.2318H184.31V93.3827H186.424V88.8395H191.896V93.3827H195.316V97.2318H191.896V102.406C191.896 103.226 192.041 103.815 192.331 104.173C192.642 104.53 193.181 104.709 193.948 104.709C194.632 104.709 195.316 104.52 196 104.141V108.274C195.461 108.527 194.881 108.706 194.259 108.811C193.658 108.937 192.912 109 192.02 109Z" fill="#F1D3BB"/>
</svg>
