<svg width="186" height="189" viewBox="0 0 186 189" fill="none" xmlns="http://www.w3.org/2000/svg">
<mask id="mask0_42_1567" style="mask-type:alpha" maskUnits="userSpaceOnUse" x="0" y="0" width="186" height="189">
<path d="M184.458 94.3265C184.458 145.614 143.481 187.153 92.979 187.153C42.4768 187.153 1.5 145.614 1.5 94.3265C1.5 43.0394 42.4768 1.5 92.979 1.5C143.481 1.5 184.458 43.0394 184.458 94.3265Z" fill="#D9D9D9" stroke="#1E3163" stroke-width="3"/>
</mask>
<g mask="url(#mask0_42_1567)">
<rect y="-8.98438" width="187.537" height="250.502" fill="#D9D9D9"/>
</g>
<path d="M102 115C102 109.109 94.8366 104.333 86 104.333C77.1634 104.333 70 109.109 70 115M112.667 107V99M112.667 99V91M112.667 99H104.667M112.667 99H120.667M86 96.3333C80.109 96.3333 75.3333 91.5577 75.3333 85.6667C75.3333 79.7756 80.109 75 86 75C91.891 75 96.6667 79.7756 96.6667 85.6667C96.6667 91.5577 91.891 96.3333 86 96.3333Z" stroke="#1E3163" stroke-width="5" stroke-linecap="round" stroke-linejoin="round"/>
</svg>
