<svg width="170" height="170" viewBox="0 0 170 170" fill="none" xmlns="http://www.w3.org/2000/svg">
<rect width="170" height="170" fill="white"/>
<mask id="mask0_91_175" style="mask-type:alpha" maskUnits="userSpaceOnUse" x="9" y="8" width="152" height="154">
<path d="M159.3 85C159.3 126.718 125.97 160.5 84.8999 160.5C43.8303 160.5 10.5 126.718 10.5 85C10.5 43.2821 43.8303 9.5 84.8999 9.5C125.97 9.5 159.3 43.2821 159.3 85Z" fill="#D9D9D9" stroke="#1E3163" stroke-width="3"/>
</mask>
<g mask="url(#mask0_91_175)">
<rect x="9" y="0.665527" width="153.089" height="204.488" fill="#D9D9D9"/>
</g>
<path d="M92.2627 101.878C92.2627 97.069 86.415 93.1705 79.2016 93.1705C71.9882 93.1705 66.1406 97.069 66.1406 101.878M100.97 95.3474V88.8169M100.97 88.8169V82.2864M100.97 88.8169H94.4395M100.97 88.8169H107.501M79.2016 86.64C74.3927 86.64 70.4943 82.7416 70.4943 77.9327C70.4943 73.1238 74.3927 69.2253 79.2016 69.2253C84.0106 69.2253 87.909 73.1238 87.909 77.9327C87.909 82.7416 84.0106 86.64 79.2016 86.64Z" stroke="#1E3163" stroke-width="5" stroke-linecap="round" stroke-linejoin="round"/>
</svg>
