<svg width="40" height="40" viewBox="0 0 40 40" fill="none" xmlns="http://www.w3.org/2000/svg">
<path d="M5 8.40761V14.3706C5 15.5633 5 16.1593 5.15474 16.6148C5.29086 17.0156 5.5079 17.3417 5.77504 17.5459C6.07844 17.7777 6.47583 17.7777 7.26941 17.7777H15.5083C16.3019 17.7777 16.6987 17.7777 17.0021 17.5459C17.2693 17.3417 17.487 17.0156 17.6232 16.6148C17.7778 16.1597 17.7778 15.5645 17.7778 14.3742V14.3742V8.40411V8.40409C17.7778 7.21373 17.7778 6.61766 17.6232 6.16256C17.487 5.76184 17.2693 5.43629 17.0021 5.23212C16.6984 5 16.3014 5 15.5063 5H14.2284H11.3889H8.54938H7.27174C6.4766 5 6.07874 5 5.77504 5.23212C5.5079 5.43629 5.29086 5.76184 5.15474 6.16256C5 6.61811 5 7.21491 5 8.40761Z" fill="#1E3163" stroke="#B6715B" stroke-width="2" stroke-linecap="round" stroke-linejoin="round"/>
<path d="M5 24.3798V30.3427C5 31.5354 5 32.1315 5.15474 32.587C5.29086 32.9877 5.5079 33.3139 5.77504 33.518C6.07844 33.7499 6.47583 33.7499 7.26941 33.7499H15.5083C16.3019 33.7499 16.6987 33.7499 17.0021 33.518C17.2693 33.3139 17.487 32.9877 17.6232 32.587C17.7778 32.1319 17.7778 31.5367 17.7778 30.3463V30.3463V24.3763V24.3763C17.7778 23.1859 17.7778 22.5898 17.6232 22.1347C17.487 21.734 17.2693 21.4085 17.0021 21.2043C16.6984 20.9722 16.3014 20.9722 15.5063 20.9722H14.2284H11.3889H8.54938H7.27174C6.4766 20.9722 6.07874 20.9722 5.77504 21.2043C5.5079 21.4085 5.29086 21.734 5.15474 22.1347C5 22.5903 5 23.1871 5 24.3798Z" fill="#1E3163" stroke="#B6715B" stroke-opacity="0.65" stroke-width="2" stroke-linecap="round" stroke-linejoin="round"/>
<path d="M20.9707 7.12975V10.8566C20.9707 11.602 20.9707 11.9746 21.1254 12.2593C21.2616 12.5097 21.4786 12.7136 21.7457 12.8412C22.0491 12.9861 22.4465 12.9861 23.2401 12.9861H31.479C32.2726 12.9861 32.6694 12.9861 32.9728 12.8412C33.24 12.7136 33.4577 12.5097 33.5939 12.2593C33.7485 11.9748 33.7485 11.6028 33.7485 10.8589V10.8589V7.12757V7.12755C33.7485 6.38358 33.7485 6.01104 33.5939 5.7266C33.4577 5.47615 33.24 5.27268 32.9728 5.14507C32.6691 5 32.2721 5 31.477 5H30.1991H27.3596H24.5201H23.2424C22.4473 5 22.0494 5 21.7457 5.14507C21.4786 5.27268 21.2616 5.47615 21.1254 5.7266C20.9707 6.01132 20.9707 6.38432 20.9707 7.12975Z" fill="#1E3163" stroke="#B6715B" stroke-opacity="0.65" stroke-width="2" stroke-linecap="round" stroke-linejoin="round"/>
<path d="M20.9707 20.8661V29.0652C20.9707 30.7051 20.9707 31.5247 21.1254 32.1511C21.2616 32.7021 21.4786 33.1505 21.7457 33.4312C22.0491 33.7501 22.4465 33.7501 23.2401 33.7501H31.479C32.2726 33.7501 32.6694 33.7501 32.9728 33.4312C33.24 33.1505 33.4577 32.7021 33.5939 32.1511C33.7485 31.5253 33.7485 30.7069 33.7485 29.0702V29.0701V20.8613V20.8613C33.7485 19.2245 33.7485 18.4049 33.5939 17.7792C33.4577 17.2282 33.24 16.7806 32.9728 16.4998C32.6691 16.1807 32.2721 16.1807 31.477 16.1807H30.1991H27.3596H24.5201H23.2424C22.4473 16.1807 22.0494 16.1807 21.7457 16.4998C21.4786 16.7806 21.2616 17.2282 21.1254 17.7792C20.9707 18.4056 20.9707 19.2262 20.9707 20.8661Z" fill="#1E3163" stroke="#B6715B" stroke-width="2" stroke-linecap="round" stroke-linejoin="round"/>
</svg>
