<svg width="32" height="32" viewBox="0 0 32 32" fill="none" xmlns="http://www.w3.org/2000/svg">
<path d="M4 6.72609V11.4964C4 12.4506 4 12.9274 4.12379 13.2919C4.23269 13.6124 4.40632 13.8733 4.62003 14.0367C4.86275 14.2222 5.18066 14.2222 5.81553 14.2222H12.4067C13.0415 14.2222 13.359 14.2222 13.6017 14.0367C13.8154 13.8733 13.9896 13.6124 14.0985 13.2919C14.2222 12.9278 14.2222 12.4516 14.2222 11.4993V11.4993V6.72329V6.72326C14.2222 5.77098 14.2222 5.29413 14.0985 4.93005C13.9896 4.60948 13.8154 4.34903 13.6017 4.18569C13.3587 4 13.0411 4 12.405 4H11.3827H9.1111H6.8395H5.81739C5.18128 4 4.86299 4 4.62003 4.18569C4.40632 4.34903 4.23269 4.60948 4.12379 4.93005C4 5.29449 4 5.77192 4 6.72609Z" stroke="#F1D3BB" stroke-width="2" stroke-linecap="round" stroke-linejoin="round"/>
<path d="M4 19.5039V24.2743C4 25.2284 4 25.7053 4.12379 26.0697C4.23269 26.3903 4.40632 26.6512 4.62003 26.8145C4.86275 27 5.18066 27 5.81553 27H12.4067C13.0415 27 13.359 27 13.6017 26.8145C13.8154 26.6512 13.9896 26.3903 14.0985 26.0697C14.2222 25.7056 14.2222 25.2295 14.2222 24.2772V24.2772V19.5011V19.5011C14.2222 18.5488 14.2222 18.072 14.0985 17.7079C13.9896 17.3873 13.8154 17.1269 13.6017 16.9635C13.3587 16.7778 13.0411 16.7778 12.405 16.7778H11.3827H9.1111H6.8395H5.81739C5.18128 16.7778 4.86299 16.7778 4.62003 16.9635C4.40632 17.1269 4.23269 17.3873 4.12379 17.7079C4 18.0723 4 18.5498 4 19.5039Z" fill="#1E3163" stroke="#F1D3BB" stroke-opacity="0.65" stroke-width="2" stroke-linecap="round" stroke-linejoin="round"/>
<path d="M16.7764 5.7038V8.68528C16.7764 9.28163 16.7764 9.57965 16.9002 9.80743C17.0091 10.0078 17.1827 10.1708 17.3964 10.2729C17.6391 10.3889 17.957 10.3889 18.5919 10.3889H25.183C25.8179 10.3889 26.1354 10.3889 26.3781 10.2729C26.5918 10.1708 26.766 10.0078 26.8749 9.80743C26.9986 9.57987 26.9986 9.28227 26.9986 8.68709V8.68708V5.70205V5.70204C26.9986 5.10686 26.9986 4.80883 26.8749 4.58128C26.766 4.38092 26.5918 4.21814 26.3781 4.11606C26.1351 4 25.8175 4 25.1814 4H24.1591H21.8875H19.6159H18.5938C17.9577 4 17.6394 4 17.3964 4.11606C17.1827 4.21814 17.0091 4.38092 16.9002 4.58128C16.7764 4.80906 16.7764 5.10745 16.7764 5.7038Z" fill="#1E3163" stroke="#F1D3BB" stroke-opacity="0.65" stroke-width="2" stroke-linecap="round" stroke-linejoin="round"/>
<path d="M16.7764 16.6927V23.252C16.7764 24.5639 16.7764 25.2196 16.9002 25.7207C17.0091 26.1615 17.1827 26.5202 17.3964 26.7448C17.6391 26.9999 17.957 26.9999 18.5919 26.9999H25.183C25.8179 26.9999 26.1354 26.9999 26.3781 26.7448C26.5918 26.5202 26.766 26.1615 26.8749 25.7207C26.9986 25.2201 26.9986 24.5653 26.9986 23.2559V16.6889C26.9986 15.3794 26.9986 14.7238 26.8749 14.2232C26.766 13.7824 26.5918 13.4243 26.3781 13.1997C26.1351 12.9443 25.8175 12.9443 25.1814 12.9443H24.1591H21.8875H19.6159H18.5938C17.9577 12.9443 17.6394 12.9443 17.3964 13.1997C17.1827 13.4243 17.0091 13.7824 16.9002 14.2232C16.7764 14.7243 16.7764 15.3807 16.7764 16.6927Z" stroke="#F1D3BB" stroke-width="2" stroke-linecap="round" stroke-linejoin="round"/>
</svg>
