<svg width="32" height="32" viewBox="0 0 32 32" fill="none" xmlns="http://www.w3.org/2000/svg">
<path d="M4 13.9337V21.4003C4 22.8938 4 23.6402 4.29065 24.2106C4.54631 24.7124 4.95396 25.1207 5.45573 25.3764C6.0256 25.6667 6.77199 25.6667 8.26255 25.6667H23.7375C25.228 25.6667 25.9733 25.6667 26.5432 25.3764C27.045 25.1207 27.454 24.7124 27.7096 24.2106C28 23.6407 28 22.8954 28 21.4049V21.4049V13.9293V13.9293C28 12.4387 28 11.6923 27.7096 11.1225C27.454 10.6207 27.045 10.2131 26.5432 9.9574C25.9728 9.66675 25.2271 9.66675 23.7336 9.66675H21.3333H16H10.6667H8.26693C6.77345 9.66675 6.02616 9.66675 5.45573 9.9574C4.95396 10.2131 4.54631 10.6207 4.29065 11.1225C4 11.6929 4 12.4402 4 13.9337Z" stroke="#F1D3BB" stroke-width="2" stroke-linecap="round" stroke-linejoin="round"/>
<path d="M10.5996 9.33333C10.5996 6.38781 12.9874 4 15.9329 4C18.8785 4 21.2663 6.38781 21.2663 9.33333" stroke="#F1D3BB" stroke-opacity="0.65" stroke-width="2" stroke-linecap="round" stroke-linejoin="round"/>
</svg>
