<svg width="40" height="40" viewBox="0 0 40 40" fill="none" xmlns="http://www.w3.org/2000/svg">
<path d="M6 19.004V28.0262C6 29.8308 6 30.7327 6.3512 31.4219C6.66013 32.0282 7.15271 32.5217 7.75901 32.8306C8.4476 33.1815 9.34949 33.1815 11.1506 33.1815H29.8494C31.6505 33.1815 32.5511 33.1815 33.2397 32.8306C33.846 32.5217 34.3402 32.0282 34.6491 31.4219C35 30.7334 35 29.8328 35 28.0317V28.0317V18.9987V18.9987C35 17.1976 35 16.2957 34.6491 15.6072C34.3402 15.0009 33.846 14.5083 33.2397 14.1993C32.5504 13.8481 31.6494 13.8481 29.8448 13.8481H26.9444H20.5H14.0556H11.1559C9.35126 13.8481 8.44828 13.8481 7.75901 14.1993C7.15271 14.5083 6.66013 15.0009 6.3512 15.6072C6 16.2964 6 17.1994 6 19.004Z" fill="#EEEEEE" stroke="#EEEEEE" stroke-width="2" stroke-linecap="round" stroke-linejoin="round"/>
<path d="M13.9766 13.4444C13.9766 9.88528 16.8618 7 20.421 7C23.9802 7 26.8655 9.88528 26.8655 13.4444" stroke="#EEEEEE" stroke-opacity="0.65" stroke-width="2" stroke-linecap="round" stroke-linejoin="round"/>
</svg>
