<svg width="258" height="258" viewBox="0 0 258 258" fill="none" xmlns="http://www.w3.org/2000/svg">
<rect width="258" height="258" rx="129" fill="white"/>
<path d="M128.447 128.465C119.791 128.317 112.79 125.274 107.65 119.455C96.2769 106.634 98.1675 84.656 98.3743 82.5586C99.1128 66.6953 106.675 59.1625 112.879 55.6472C119.053 52.1318 125.493 51.6001 128.772 51.6001H128.949C128.978 51.6001 129.037 51.6001 129.067 51.6001H129.274C135.241 51.7183 140.588 53.1362 145.167 55.7653C151.311 59.2806 158.755 66.8135 159.494 82.5586C159.701 84.656 161.591 106.634 150.218 119.455C145.048 125.274 138.047 128.317 129.392 128.465C129.303 128.465 129.185 128.465 129.096 128.465C129.037 128.465 128.978 128.465 128.919 128.465C128.742 128.465 128.594 128.465 128.447 128.465ZM106.262 83.2971C106.232 83.4744 104.223 103.651 113.588 114.167C117.28 118.362 122.273 120.43 128.772 120.489C128.831 120.489 128.86 120.489 128.919 120.489C128.978 120.489 129.008 120.489 129.067 120.489C135.595 120.43 140.558 118.362 144.28 114.167C153.674 103.592 151.606 83.5039 151.577 83.2971C151.547 83.2381 151.547 83.1494 151.547 83.0608C150.632 63.0323 137.072 59.7828 129.096 59.6056C129.008 59.6056 128.919 59.6056 128.86 59.6056H128.742C122.302 59.6056 107.266 61.8802 106.291 83.0608C106.291 83.1199 106.262 83.2085 106.262 83.2971ZM189.625 164.918C189.655 166.454 189.684 174.341 188.207 178.27C187.912 179.038 187.35 179.688 186.671 180.131C185.785 180.692 164.545 194.252 129.008 194.252C93.4706 194.252 72.2309 180.722 71.3447 180.131C70.6357 179.688 70.104 179.038 69.8086 178.27C68.2429 174.312 68.2724 166.424 68.302 164.888C68.302 164.859 68.302 164.829 68.302 164.8C68.3315 164.563 68.3315 164.327 68.3315 164.061C68.5088 158.242 68.8928 144.564 81.7134 140.163C81.802 140.133 81.8906 140.104 82.0088 140.074C95.3907 136.677 106.409 128.996 106.527 128.908C108.329 127.638 110.811 128.081 112.081 129.883C113.351 131.685 112.908 134.166 111.106 135.436C110.604 135.761 98.8469 143.973 84.1357 147.755C77.2528 150.207 76.4847 157.562 76.2779 164.297C76.2779 164.563 76.2484 164.8 76.2484 165.036C76.1893 167.695 76.3961 171.801 76.8688 174.164C81.6839 176.882 100.56 186.305 128.978 186.305C157.515 186.305 176.273 176.911 181.058 174.193C181.531 171.83 181.708 167.724 181.679 165.065C181.649 164.829 181.649 164.593 181.649 164.327C181.442 157.592 180.674 150.236 173.791 147.784C159.08 144.003 147.323 135.82 146.821 135.466C145.019 134.196 144.576 131.714 145.846 129.912C147.116 128.11 149.598 127.667 151.4 128.937C151.518 129.026 162.596 136.707 175.918 140.104C176.007 140.133 176.125 140.163 176.214 140.192C189.034 144.564 189.418 158.242 189.596 164.091C189.596 164.356 189.625 164.593 189.625 164.829C189.625 164.859 189.625 164.888 189.625 164.918Z" fill="#1E3163"/>
</svg>
