<svg width="32" height="32" viewBox="0 0 32 32" fill="none" xmlns="http://www.w3.org/2000/svg">
<path d="M28 22.0606C28 20.4203 26.3545 19.0106 24 18.3934M4 22.0606C4 20.4203 5.64546 19.0106 8 18.3934M24 13.0415C24.8183 12.3091 25.3333 11.2447 25.3333 10.0601C25.3333 7.85092 23.5425 6.06006 21.3333 6.06006C20.3089 6.06006 19.3743 6.4452 18.6667 7.07858M8 13.0415C7.18167 12.3091 6.66667 11.2447 6.66667 10.0601C6.66667 7.85092 8.45753 6.06006 10.6667 6.06006C11.6911 6.06006 12.6257 6.4452 13.3333 7.07858" stroke="#F1D3BB" stroke-opacity="0.65" stroke-width="2" stroke-linecap="round" stroke-linejoin="round"/>
<path d="M22.8333 25.8936C22.8333 23.6844 19.8486 21.8936 16.1667 21.8936C12.4848 21.8936 9.5 23.6844 9.5 25.8936M16.1667 17.8936C13.9575 17.8936 12.1667 16.1027 12.1667 13.8936C12.1667 11.6844 13.9575 9.89355 16.1667 9.89355C18.3758 9.89355 20.1667 11.6844 20.1667 13.8936C20.1667 16.1027 18.3758 17.8936 16.1667 17.8936Z" stroke="#F1D3BB" stroke-width="2" stroke-linecap="round" stroke-linejoin="round"/>
</svg>
