<svg width="40" height="40" viewBox="0 0 40 40" fill="none" xmlns="http://www.w3.org/2000/svg">
<path d="M15.2083 17.0188C15.2083 19.8443 17.4469 22.1348 20.2083 22.1348C22.9698 22.1348 25.2083 19.8443 25.2083 17.0188C25.2083 14.1933 22.9698 11.9028 20.2083 11.9028C17.4469 11.9028 15.2083 14.1933 15.2083 17.0188Z" fill="#EEEEEE"/>
<path d="M35 27.4645C35 25.3666 32.9432 23.5636 30 22.7742M5 27.4645C5 25.3666 7.05683 23.5636 10 22.7742M30 15.9292C31.0229 14.9925 31.6667 13.6311 31.6667 12.116C31.6667 9.29049 29.4281 7 26.6667 7C25.3861 7 24.2179 7.49259 23.3333 8.30268M10 15.9292C8.97708 14.9925 8.33333 13.6311 8.33333 12.116C8.33333 9.29049 10.5719 7 13.3333 7C14.6139 7 15.7821 7.49259 16.6667 8.30268M28.5417 32.3667C28.5417 29.5412 24.8107 27.2507 20.2083 27.2507C15.606 27.2507 11.875 29.5412 11.875 32.3667M20.2083 22.1348C17.4469 22.1348 15.2083 19.8443 15.2083 17.0188C15.2083 14.1933 17.4469 11.9028 20.2083 11.9028C22.9698 11.9028 25.2083 14.1933 25.2083 17.0188C25.2083 19.8443 22.9698 22.1348 20.2083 22.1348Z" stroke="#EEEEEE" stroke-width="2" stroke-linecap="round" stroke-linejoin="round"/>
</svg>
