<svg width="62" height="50" viewBox="0 0 62 50" fill="none" xmlns="http://www.w3.org/2000/svg">
<path d="M31.2105 30.75L38.7895 24M38.7895 24L31.2105 17.25M38.7895 24H11M23.6316 13.3093V13.2004C23.6316 10.6802 23.6316 9.41915 24.1823 8.45654C24.6667 7.60981 25.4391 6.9219 26.3898 6.49047C27.4706 6 28.8865 6 31.7163 6H43.3373C46.1671 6 47.58 6 48.6608 6.49047C49.6115 6.9219 50.3865 7.60981 50.8709 8.45654C51.4211 9.4182 51.4211 10.6777 51.4211 13.193V34.8081C51.4211 37.3234 51.4211 38.5811 50.8709 39.5427C50.3865 40.3895 49.6115 41.0786 48.6608 41.51C47.581 42 46.1689 42 43.3447 42H31.708C28.8838 42 27.4696 42 26.3898 41.51C25.4391 41.0786 24.6667 40.3888 24.1823 39.5421C23.6316 38.5795 23.6316 37.3202 23.6316 34.8V34.6875" stroke="#1E3163" stroke-width="3" stroke-linecap="round" stroke-linejoin="round"/>
</svg>
