<svg width="62" height="50" viewBox="0 0 62 50" fill="none" xmlns="http://www.w3.org/2000/svg">
<path d="M41.5925 41.2939C38.7443 38.1129 34.6059 36.1111 30 36.1111C25.3941 36.1111 21.2554 38.1129 18.4071 41.2939M30 45C18.9543 45 10 36.0457 10 25C10 13.9543 18.9543 5 30 5C41.0457 5 50 13.9543 50 25C50 36.0457 41.0457 45 30 45ZM30 29.4444C26.3181 29.4444 23.3333 26.4597 23.3333 22.7778C23.3333 19.0959 26.3181 16.1111 30 16.1111C33.6819 16.1111 36.6667 19.0959 36.6667 22.7778C36.6667 26.4597 33.6819 29.4444 30 29.4444Z" stroke="#1E3163" stroke-width="3" stroke-linecap="round" stroke-linejoin="round"/>
</svg>
