<svg width="40" height="40" viewBox="0 0 40 40" fill="none" xmlns="http://www.w3.org/2000/svg">
<path d="M20.8437 18.9602V23.9432H18.8493V18.9602H13.8607C12.8029 18.9602 11.7883 18.54 11.0403 17.792C10.2923 17.044 9.87207 15.0294 9.87207 13.9716V7.98864C9.87207 6.93078 10.2923 4.91626 11.0403 4.16824C11.7883 3.42023 12.8029 3 13.8607 3H25.8323C26.8901 3 27.9047 3.42023 28.6527 4.16824C29.4007 4.91626 29.8209 6.93078 29.8209 7.98864V13.9716C29.8209 15.0294 29.4007 17.044 28.6527 17.792C27.9047 18.54 26.8901 18.9602 25.8323 18.9602H20.8437Z" fill="#D9D9D9"/>
<path d="M20.8437 18.9602V23.9432H18.8493V18.9602H13.8607C12.8029 18.9602 11.7883 18.54 11.0403 17.792C10.2923 17.044 9.87207 15.0294 9.87207 13.9716V7.98864C9.87207 6.93078 10.2923 4.91626 11.0403 4.16824C11.7883 3.42023 12.8029 3 13.8607 3H25.8323C26.8901 3 27.9047 3.42023 28.6527 4.16824C29.4007 4.91626 29.8209 6.93078 29.8209 7.98864V13.9716C29.8209 15.0294 29.4007 17.044 28.6527 17.792C27.9047 18.54 26.8901 18.9602 25.8323 18.9602H20.8437Z" stroke="#D9D9D9"/>
<path d="M17.3567 31.0956C17.7138 30.4869 18.2745 30.0241 18.9398 29.7889V25.6171H13.9541C12.7712 25.6202 11.6281 26.0442 10.7292 26.813C9.83034 27.5819 9.23443 28.6456 9.04812 29.8137C9.70472 30.0653 10.2513 30.5409 10.5911 31.1565C10.931 31.772 11.0424 32.4879 10.9056 33.1777C10.7688 33.8674 10.3926 34.4865 9.84344 34.9257C9.29431 35.365 8.60761 35.5959 7.90468 35.5779C7.20175 35.5598 6.52782 35.2938 6.00199 34.827C5.47615 34.3602 5.13225 33.7225 5.03105 33.0266C4.92984 32.3308 5.07785 31.6216 5.44892 31.0243C5.81999 30.427 6.39024 29.9801 7.0589 29.7625C7.26076 28.0739 8.07331 26.5175 9.34341 25.3865C10.6135 24.2556 12.2534 23.9708 13.9541 23.9653H18.9398H22.4299H25.92C27.6206 23.9707 29.2605 24.2555 30.5307 25.3865C31.8008 26.5174 32.6133 28.0739 32.8152 29.7625C33.4894 29.9802 34.0649 30.4293 34.4398 31.0304C34.8148 31.6315 34.9649 32.3459 34.8638 33.0471C34.7626 33.7483 34.4167 34.3911 33.8872 34.8618C33.3577 35.3325 32.6787 35.6006 31.9705 35.6189C31.2622 35.6371 30.5704 35.4041 30.0174 34.9613C29.4644 34.5185 29.0859 33.8943 28.9488 33.1992C28.8118 32.5041 28.9251 31.7829 29.2686 31.1633C29.6122 30.5437 30.1638 30.0657 30.826 29.8137C30.6397 28.6456 30.0437 27.5819 29.1449 26.813C28.246 26.0441 27.1028 25.6202 25.92 25.6171H20.9342V29.7889C21.5995 30.0241 22.1602 30.4869 22.5173 31.0956C22.8743 31.7043 23.0047 32.4196 22.8854 33.1151C22.7661 33.8106 22.4047 34.4416 21.8652 34.8964C21.3256 35.3513 20.6427 35.6007 19.937 35.6007C19.2313 35.6007 18.5484 35.3513 18.0088 34.8964C17.4693 34.4416 17.1079 33.8106 16.9886 33.1151C16.8693 32.4196 16.9997 31.7043 17.3567 31.0956Z" fill="#D9D9D9"/>
<path d="M13.542 8.7693V13.0044C13.542 13.8515 13.542 14.2748 13.6971 14.5983C13.8336 14.8829 14.0512 15.1145 14.3191 15.2596C14.6233 15.4242 15.0218 15.4242 15.8175 15.4242H24.0785C24.8742 15.4242 25.272 15.4242 25.5763 15.2596C25.8441 15.1145 26.0625 14.8829 26.1989 14.5983C26.3539 14.2751 26.3539 13.8524 26.3539 13.0069V8.76682C26.3539 7.92138 26.3539 7.49803 26.1989 7.1748C26.0625 6.89021 25.8441 6.65899 25.5763 6.51398C25.2717 6.34912 24.8737 6.34912 24.0764 6.34912H22.7951H19.948H17.1009H15.8198C15.0225 6.34912 14.6236 6.34912 14.3191 6.51398C14.0512 6.65899 13.8336 6.89021 13.6971 7.1748C13.542 7.49835 13.542 7.92221 13.542 8.7693Z" fill="#1E3163" stroke="#1E3163" stroke-width="2" stroke-linecap="round" stroke-linejoin="round"/>
</svg>
